<svg width="100" height="40" viewBox="0 0 100 40" fill="none" xmlns="http://www.w3.org/2000/svg">
<path d="M2.74734 3.60055C2.20522 3.16818 1.52452 3.11829 0.909025 2.88548C0.334295 2.66514 -0.077391 2.21614 0.0122831 1.60085C0.106033 0.956454 0.55848 0.507456 1.26364 0.503298C4.26365 0.482512 7.26366 0.395206 10.2596 0.499141C12.0938 0.565659 13.333 1.73388 14.0626 3.42594C15.7786 7.40456 17.4947 11.3832 19.1944 15.366C21.1713 20.0014 23.1278 24.6411 25.1007 29.2766C25.6469 30.5612 25.708 31.7502 24.9906 33.0598C24.0776 34.7227 23.405 36.5146 22.6102 38.244C22.3289 38.8552 22.011 39.5121 21.2406 39.5453C20.3765 39.5869 20.0259 38.8926 19.7324 38.2233C16.9444 31.85 14.1726 25.4726 11.3887 19.1034C9.61149 15.0417 7.871 10.9633 6.00007 6.94309C5.4661 5.79981 5.13594 4.33641 3.59517 3.97887C3.30577 3.85415 3.02452 3.72527 2.74734 3.60055Z" fill="#303030"/>
<path d="M94.483 39.819C93.4681 39.819 92.4409 39.7359 91.4341 39.8398C90.0319 39.9812 89.2982 39.2619 88.7846 38.0729C87.6148 35.3498 86.4694 32.6143 85.214 29.9286C84.3662 28.116 83.3512 26.3824 82.4015 24.6196C81.7004 23.3225 80.7873 22.2499 79.4341 21.6014C78.8267 21.3104 78.1949 20.9237 78.2805 20.1255C78.3784 19.2483 79.1406 19.0654 79.8458 18.8866C80.2901 18.7744 80.7303 18.6579 81.1746 18.554C85.324 17.5853 86.8893 14.7458 86.7262 10.813C86.5428 6.43108 83.392 3.38788 79.3322 3.16754C78.3702 3.11349 77.4001 3.15507 76.4381 3.08855C75.6678 3.0345 74.9952 2.66034 74.9667 1.80392C74.9341 0.914236 75.4966 0.328045 76.377 0.294786C80.8526 0.111862 85.3403 -0.0544337 89.5999 1.75403C93.1135 3.24653 94.9232 6.00287 95.2371 9.84845C95.5754 13.9559 94.536 17.3068 90.6515 19.3107C88.805 20.2627 88.9232 20.3084 89.8974 22.1792C91.5605 25.3721 93.1501 28.6066 94.7031 31.8576C95.7303 34.007 97.2344 35.7115 99.0686 37.1541C99.6434 37.6031 100.214 38.1062 99.9205 38.9626C99.6271 39.8315 98.8485 39.8149 98.1393 39.8273C96.9205 39.8481 95.6977 39.8357 94.479 39.8357C94.483 39.8273 94.483 39.8232 94.483 39.819Z" fill="#303030"/>
<path d="M34.0282 18.0621C34.0282 13.3434 34.0119 8.62479 34.0364 3.90616C34.0486 1.01677 34.8394 0.243502 37.6804 0.235187C40.2769 0.226872 42.8693 0.218557 45.4658 0.235187C46.281 0.239344 47.2511 0.197771 47.4467 1.24543C47.6424 2.29309 46.7171 2.59658 45.9671 2.91254C43.1791 4.10155 42.4535 5.20326 42.4128 8.25062C42.3109 16.0291 42.1886 23.8034 42.0867 31.5819C42.0459 34.7872 42.8856 36.0427 45.7592 37.2816C46.444 37.5768 47.3734 37.8304 47.1859 38.8157C47.0106 39.747 46.1098 39.8093 45.3313 39.8135C40.4481 39.8218 35.5608 39.8218 30.6777 39.8135C30.2741 39.8135 29.8665 39.7387 29.4752 39.643C28.9942 39.5225 28.6478 39.194 28.6111 38.6785C28.5785 38.2171 28.9127 37.9052 29.2796 37.7223C29.732 37.4937 30.2252 37.344 30.7021 37.1735C32.9358 36.3753 34.0078 34.9119 34.016 32.5297C34.0405 27.7072 34.0282 22.8846 34.0282 18.0621Z" fill="#303030"/>
<path d="M68.1914 39.3932C65.7987 39.3932 63.4101 39.6343 61.0174 39.6177C60.5161 39.6135 60.0066 39.5428 59.5133 39.443C59.0568 39.3516 58.8326 38.9816 58.8082 38.5409C58.7837 38.1002 58.9631 37.7302 59.3992 37.5556C59.6356 37.4641 59.8802 37.3935 60.1207 37.3103C63.3653 36.2169 63.9481 35.003 62.6886 31.7685C60.4835 26.1062 58.2416 20.4563 56.0242 14.7981C55.3516 13.0769 54.6832 11.3557 54.0473 9.62212C53.5378 8.23771 53.7375 6.95308 54.4916 5.66429C55.2375 4.37966 55.8163 2.99109 56.4318 1.63162C56.7375 0.958128 57.1207 0.105864 57.7892 0.14328C58.4862 0.184854 59.0161 0.953971 59.3258 1.69399C60.2389 3.88493 61.156 6.07171 62.065 8.26681C65.2851 16.037 68.4848 23.8113 71.7294 31.569C72.7362 33.9719 74.2566 35.9259 76.7593 36.907C77.3707 37.1482 78.0677 37.4683 77.9129 38.3164C77.758 39.1853 77.0365 39.3848 76.2824 39.389C73.584 39.4015 70.8897 39.3932 68.1914 39.3932C68.1914 39.3183 68.1914 39.4721 68.1914 39.3932Z" fill="#303030"/>
<path d="M12.4981 39.8335C8.71548 39.8335 5.22226 39.846 1.72905 39.821C1.20731 39.8169 0.489912 39.9457 0.306488 39.2307C0.0945307 38.4158 0.816 38.208 1.34997 37.9419C3.22497 37.0189 4.50487 35.5555 5.26302 33.5849C5.51167 32.9405 5.6258 32.0259 6.52254 32.0342C7.40297 32.0426 7.51303 32.9655 7.79836 33.5933C8.85814 35.9131 10.3744 37.68 12.9628 38.1996C13.456 38.2994 13.9044 38.5364 13.7902 39.0852C13.619 39.9042 12.5584 39.8335 12.4981 39.8335Z" fill="#303030"/>
</svg>
