<svg width="141" height="250" viewBox="0 0 141 250" fill="none" xmlns="http://www.w3.org/2000/svg">
<g clip-path="url(#clip0_499_1538)">
<path d="M112.835 250.336L27.8099 250.286C17.5878 250.279 9.30078 241.965 9.30078 231.716L9.34476 18.0118C9.34476 7.75706 17.6443 -0.557565 27.879 -0.551266L112.904 -0.500876C123.132 -0.500876 131.413 7.82005 131.413 18.0684L131.369 231.773C131.369 242.028 123.069 250.342 112.835 250.336Z" fill="#263238"/>
<path d="M112.803 7.05776L96.3174 7.04517C94.1059 7.04517 92.3153 8.92226 92.3153 11.2403V14.2386C92.3153 16.5566 90.5184 18.4337 88.3131 18.4337L56.183 18.4148C53.9715 18.4148 52.1809 16.5314 52.1809 14.2197V11.2214C52.1809 8.90336 50.3903 7.02627 48.1787 7.02627H42.3797L27.9545 7.01367C20.7921 7.01367 14.9805 12.8339 14.9742 20.0147L14.9365 228.605C14.9365 235.785 20.7355 241.606 27.8979 241.612L112.753 241.662C119.916 241.662 125.727 235.842 125.733 228.661L125.771 20.0714C125.771 12.8906 119.972 7.07036 112.81 7.06406L112.803 7.05776Z" fill="white"/>
<path d="M106.616 227.74H34.0936C32.2905 227.74 30.8203 226.266 30.8203 224.458V204.572C30.8203 202.764 32.2905 201.291 34.0936 201.291H106.616C108.419 201.291 109.889 202.764 109.889 204.572V224.458C109.889 226.266 108.425 227.74 106.616 227.74ZM34.0936 201.927C32.636 201.927 31.4486 203.117 31.4486 204.579V224.464C31.4486 225.926 32.636 227.116 34.0936 227.116H106.616C108.073 227.116 109.261 225.926 109.261 224.464V204.579C109.261 203.117 108.073 201.927 106.616 201.927H34.0936Z" fill="#E0E0E0"/>
<path d="M50.7801 212.962C50.7801 209.334 47.5131 206.474 43.7685 207.179C41.4125 207.62 39.5339 209.554 39.1255 211.916C38.8679 213.396 39.1695 214.788 39.8481 215.935L39.8669 215.96C40.0931 216.338 40.3758 216.615 40.6585 217.012L44.0701 221.541C44.4973 222.102 45.3392 222.102 45.7664 221.541L49.1214 217.088C49.1214 217.088 49.7497 216.338 49.9759 215.954L49.9885 215.935C50.5037 215.059 50.799 214.045 50.799 212.962H50.7801ZM44.9057 215.525C43.4795 215.525 42.3235 214.366 42.3235 212.937C42.3235 211.507 43.4795 210.348 44.9057 210.348C46.3319 210.348 47.4879 211.507 47.4879 212.937C47.4879 214.366 46.3319 215.525 44.9057 215.525Z" fill="#06B6D4"/>
<path d="M99.2839 211.255H62.9254C61.2078 211.255 59.8154 212.651 59.8154 214.373V215.129C59.8154 216.851 61.2078 218.247 62.9254 218.247H99.2839C101.001 218.247 102.394 216.851 102.394 215.129V214.373C102.394 212.651 101.001 211.255 99.2839 211.255Z" fill="#E0E0E0"/>
<path d="M30.0391 163.255C30.0391 160.597 32.0683 158.713 34.8326 158.713C36.4346 158.713 37.7288 159.299 38.577 160.357L37.0063 161.781C36.4598 161.119 35.7875 160.76 34.952 160.76C33.5196 160.76 32.5269 161.762 32.5269 163.255C32.5269 164.748 33.5196 165.749 34.952 165.749C35.7875 165.749 36.4598 165.39 37.0063 164.729L38.577 166.152C37.7288 167.21 36.4346 167.796 34.8326 167.796C32.0683 167.796 30.0391 165.913 30.0391 163.255Z" fill="#06B6D4"/>
<path d="M39.0283 163.255C39.0283 160.634 41.0827 158.713 43.8658 158.713C46.649 158.713 48.7034 160.634 48.7034 163.255C48.7034 165.875 46.649 167.796 43.8658 167.796C41.0827 167.796 39.0283 165.875 39.0283 163.255ZM46.2218 163.255C46.2218 161.743 45.1914 160.76 43.8721 160.76C42.5528 160.76 41.5225 161.749 41.5225 163.255C41.5225 164.76 42.5528 165.749 43.8721 165.749C45.1914 165.749 46.2218 164.766 46.2218 163.255Z" fill="#06B6D4"/>
<path d="M58.2925 158.891V167.621H56.2632L52.4183 162.966V167.621H50.0059V158.891H52.0351L55.88 163.545V158.891H58.2925Z" fill="#06B6D4"/>
<path d="M62.5008 160.799V162.72H66.3457V164.629H62.5008V167.621H60.0381V158.891H66.8672V160.799H62.5008Z" fill="#06B6D4"/>
<path d="M68.0234 158.891H70.4862V167.621H68.0234V158.891Z" fill="#06B6D4"/>
<path d="M76.0484 165.303H74.7039V167.621H72.2412V158.891H76.2243C78.5991 158.891 80.0943 160.125 80.0943 162.122C80.0943 163.407 79.4724 164.352 78.3918 164.881L80.2702 167.627H77.6316L76.0484 165.309V165.303ZM76.0735 160.837H74.7039V163.394H76.0735C77.0913 163.394 77.6065 162.922 77.6065 162.122C77.6065 161.322 77.0976 160.837 76.0735 160.837Z" fill="#06B6D4"/>
<path d="M89.3169 167.627L89.2917 162.997L87.0489 166.764H85.9557L83.7254 163.123V167.627H81.4512V158.897H83.4804L86.54 163.936L89.5242 158.897H91.5534L91.5786 167.627H89.3169Z" fill="#06B6D4"/>
<path d="M100.318 165.718V167.627H93.3252V158.897H100.154V160.805H95.7628V162.279H99.6328V164.125H95.7628V165.725H100.318V165.718Z" fill="#06B6D4"/>
<path d="M101.682 158.891H105.803C108.687 158.891 110.666 160.572 110.666 163.256C110.666 165.939 108.687 167.621 105.803 167.621H101.682V158.891ZM105.702 165.655C107.185 165.655 108.178 164.767 108.178 163.262C108.178 161.757 107.185 160.868 105.702 160.868H104.144V165.662H105.702V165.655Z" fill="#06B6D4"/>
<path d="M41.0843 177.798H37.409L36.6174 179.562H35.8887L38.9043 172.948H39.5953L42.6109 179.562H41.8759L41.0843 177.798ZM40.833 177.231L39.2498 173.679L37.6666 177.231H40.833Z" fill="#06B6D4"/>
<path d="M44.6522 173.558H42.334V172.953H47.6678V173.558H45.3496V179.567H44.6522V173.558Z" fill="#06B6D4"/>
<path d="M50.1571 173.558H47.8389V172.953H53.1727V173.558H50.8545V179.567H50.1571V173.558Z" fill="#06B6D4"/>
<path d="M58.9516 178.962V179.567H54.29V172.953H58.8134V173.558H54.9874V175.913H58.3988V176.512H54.9874V178.968H58.9516V178.962Z" fill="#06B6D4"/>
<path d="M66.1025 172.953V179.567H65.5308L61.2901 174.2V179.567H60.5928V172.953H61.1708L65.4177 178.32V172.953H66.1025Z" fill="#06B6D4"/>
<path d="M68.25 172.953H70.9326C73.0435 172.953 74.4634 174.314 74.4634 176.26C74.4634 178.206 73.0435 179.567 70.9326 179.567H68.25V172.953ZM70.8949 178.962C72.6477 178.962 73.7786 177.847 73.7786 176.26C73.7786 174.673 72.6477 173.558 70.8949 173.558H68.9474V178.962H70.8949Z" fill="#06B6D4"/>
<path d="M80.0745 177.797H76.3993L75.6077 179.561H74.8789L77.8945 172.947H78.5856L81.6012 179.561H80.8661L80.0745 177.797ZM79.8232 177.23L78.24 173.678L76.6569 177.23H79.8232Z" fill="#06B6D4"/>
<path d="M88.2119 172.953V179.567H87.6402L83.3995 174.2V179.567H82.7021V172.953H83.2739L87.5208 178.32V172.953H88.2056H88.2119Z" fill="#06B6D4"/>
<path d="M89.7773 176.261C89.7773 174.328 91.2474 172.898 93.2327 172.898C94.1939 172.898 95.0609 173.219 95.6452 173.862L95.1991 174.309C94.6651 173.761 94.0055 173.522 93.2516 173.522C91.6558 173.522 90.4621 174.693 90.4621 176.261C90.4621 177.83 91.6558 179.001 93.2516 179.001C94.0055 179.001 94.6651 178.762 95.1991 178.208L95.6452 178.649C95.0609 179.291 94.1939 179.625 93.2264 179.625C91.2475 179.625 89.7773 178.201 89.7773 176.261Z" fill="#06B6D4"/>
<path d="M101.802 178.962V179.567H97.1406V172.953H101.664V173.558H97.838V175.913H101.249V176.512H97.838V178.968H101.802V178.962Z" fill="#06B6D4"/>
<path d="M98.0378 187.296H42.674C41.1923 187.296 39.9912 188.501 39.9912 189.986V190.635C39.9912 192.12 41.1923 193.324 42.674 193.324H98.0378C99.5195 193.324 100.721 192.12 100.721 190.635V189.986C100.721 188.501 99.5195 187.296 98.0378 187.296Z" fill="#E0E0E0"/>
<path d="M34.8581 28.3733H26.9484C26.5966 28.3733 26.3076 28.0836 26.3076 27.7308C26.3076 27.3781 26.5966 27.0884 26.9484 27.0884H34.8581C35.2099 27.0884 35.4989 27.3781 35.4989 27.7308C35.4989 28.0836 35.2099 28.3733 34.8581 28.3733Z" fill="#263238"/>
<path d="M34.7897 30.9426H26.8801C26.5283 30.9426 26.2393 30.6529 26.2393 30.3002C26.2393 29.9475 26.5283 29.6577 26.8801 29.6577H34.7897C35.1415 29.6577 35.4305 29.9475 35.4305 30.3002C35.4305 30.6529 35.1415 30.9426 34.7897 30.9426Z" fill="#263238"/>
<path d="M34.7136 33.5203H26.8039C26.4521 33.5203 26.1631 33.2305 26.1631 32.8778C26.1631 32.5251 26.4521 32.2354 26.8039 32.2354H34.7136C35.0654 32.2354 35.3544 32.5251 35.3544 32.8778C35.3544 33.2305 35.0654 33.5203 34.7136 33.5203Z" fill="#263238"/>
<path d="M75.278 138.407C99.3717 134.746 115.943 112.195 112.29 88.0392C108.638 63.8834 86.1451 47.2698 62.0514 50.9317C37.9576 54.5935 21.3867 77.1441 25.0391 101.3C28.6915 125.456 51.1843 142.069 75.278 138.407Z" fill="#F5F5F5"/>
<path d="M106.905 86.122L107.408 104.962L100.704 94.613L84.9971 94.4619L88.5091 100.698C92.172 106.146 94.4024 110.732 99.2213 115.966C101.628 118.574 103.864 122.215 104.957 122.984C107.571 124.817 111.498 126.297 114.916 123.33C119.678 119.198 119.106 111.249 117.605 103.129C115.94 94.1154 115.06 85.4229 115.06 85.4229L106.899 86.1157L106.905 86.122Z" fill="#FFBF9D"/>
<path d="M108.757 74.7211C108.757 74.7211 107.312 71.9181 106.162 72.1701C105.013 72.422 103.461 73.4551 103.272 74.3936C103.084 75.3321 103.335 76.1825 103.769 76.1447C104.202 76.1132 105.471 75.2692 105.471 75.2692L106.941 77.3415L106.288 79.9619L104.755 80.7492L103.875 78.9162L104.233 76.8502C104.233 76.8502 103.191 75.962 102.613 77.6187C102.035 79.2753 101.369 82.2547 103.027 83.6971C104.686 85.1396 107.827 87.0923 107.827 87.0923L115.341 86.4498L117.145 77.5809C117.145 77.5809 120.148 74.5259 120.336 73.2787C120.531 72.0315 120.694 68.2143 120.694 68.2143C120.694 68.2143 119.796 67.5403 119.274 68.5986C118.753 69.6568 118.25 72.7307 118.25 72.7307L115.744 75.1558L116.73 64.2838C116.73 64.2838 115.222 63.3011 114.6 65.7451C113.984 68.1891 113.306 74.2298 112.998 74.2298C112.69 74.2298 111.779 74.2298 111.911 72.97C112.043 71.7102 111.628 62.0225 111.628 62.0225C111.628 62.0225 109.454 62.4949 109.593 64.542C109.725 66.5892 109.649 72.9952 109.612 73.474C109.574 73.9527 108.757 74.7086 108.757 74.7086V74.7211Z" fill="#FFBF9D"/>
<path d="M108.752 114.203C108.658 114.228 108.18 112.181 107.828 109.586C107.477 106.997 107.389 104.868 107.489 104.862C107.59 104.849 107.835 106.947 108.186 109.523C108.532 112.099 108.852 114.178 108.758 114.203H108.752Z" fill="#FF9A6C"/>
<path d="M110.882 83.967C110.825 83.9795 110.718 83.6646 110.448 83.2174C110.184 82.7702 109.738 82.2033 109.097 81.7372C108.457 81.2774 107.778 81.0192 107.275 80.9121C106.767 80.7987 106.434 80.7924 106.434 80.7357C106.434 80.6979 106.767 80.6098 107.319 80.6664C107.866 80.7168 108.62 80.9562 109.311 81.4538C109.996 81.9577 110.454 82.6064 110.674 83.1103C110.894 83.6205 110.919 83.9669 110.882 83.9732V83.967Z" fill="#FF9A6C"/>
<path d="M52.5078 84.3319L62.6168 83.3052L79.8002 84.0548L87.6223 86.7633L76.7342 97.8117L62.3529 96.0165L55.9005 92.3505L52.5078 84.3319Z" fill="#FFBF9D"/>
<path d="M75.2078 41.3921C76.9796 40.2645 77.4068 37.6505 76.4456 35.7797C75.4843 33.9089 73.4487 32.7751 71.3754 32.4412C68.3785 31.9562 65.1742 33.0207 63.0569 35.2065C61.9135 36.3844 60.9899 37.9276 59.4381 38.4693C58.0747 38.9418 56.5668 38.5134 55.1406 38.7024C53.2244 38.9544 51.5783 40.3212 50.5982 41.9905C49.6181 43.6597 49.2097 45.6061 48.9835 47.5335C48.7762 49.2972 48.638 51.2373 47.4128 52.5286C46.2191 53.7884 44.3343 54.053 42.8515 54.9474C40.062 56.6292 39.1572 60.7991 40.9981 63.4888C41.5824 64.3455 42.4306 65.1328 42.4934 66.1722C42.5562 67.1233 41.9468 67.9674 41.6578 68.8681C40.9227 71.1987 42.8264 73.9703 45.2641 74.1088C46.4955 74.1781 47.8086 73.6994 48.9144 74.2474C50.0076 74.7954 50.416 76.1182 51.1197 77.126C52.4956 79.1039 55.3794 79.8535 57.5407 78.789C58.4454 78.3417 59.2998 77.6111 60.3051 77.6804C61.3103 77.7496 62.0957 78.6063 63.0821 78.7953C64.3763 79.0472 65.6015 78.0898 66.368 77.019C67.1345 75.9481 67.6685 74.6883 68.6549 73.8065C69.9429 72.6601 71.7523 72.3766 73.3796 71.8097C76.9733 70.5688 79.9828 67.7028 81.4027 64.1691C82.8226 60.6291 82.6404 56.4781 80.9063 53.0829" fill="#263238"/>
<path d="M56.466 64.6098C56.0953 64.213 55.5676 63.8414 55.0273 63.6587H55.1341C55.0335 63.6272 54.9267 63.6146 54.8262 63.602C54.4304 63.5075 54.0346 63.5264 53.7017 63.7406H53.7142C53.0985 63.9673 52.5582 64.4208 52.263 65.0066C51.7478 66.0333 51.9363 67.3434 52.6336 68.2567C53.2368 69.0504 54.2796 69.5732 55.2472 69.3338C56.1393 69.1196 56.7989 68.3071 57.0502 67.4253C57.3267 66.4616 57.1507 65.3404 56.466 64.6035V64.6098Z" fill="#455A64"/>
<path d="M79.8017 84.056L81.6803 49.418C81.7557 47.8937 80.6499 46.5646 79.142 46.363L63.6989 41.979C58.7293 41.3113 55.2423 47.3646 54.79 52.3722C54.281 57.9342 53.8789 64.7371 54.4193 68.9133C55.5062 77.3098 62.367 78.5759 62.367 78.5759C62.367 78.5507 62.4173 87.1236 62.367 90.1597L67.5063 101.321L79.8017 84.056Z" fill="#FFBF9D"/>
<path d="M57.9124 58.6721C57.8747 59.239 58.327 59.7366 58.9113 59.7807C59.4955 59.8311 60.0044 59.4091 60.0421 58.8485C60.0798 58.2816 59.6275 57.784 59.0432 57.7399C58.4526 57.6895 57.95 58.1115 57.9124 58.6784V58.6721Z" fill="#263238"/>
<path d="M56.1975 55.395C56.3232 55.5399 57.1525 54.9604 58.3022 54.9982C59.4519 55.0171 60.2812 55.6344 60.4068 55.4958C60.4696 55.4328 60.344 55.1809 59.9796 54.8974C59.6278 54.6203 59.0184 54.3431 58.3022 54.3242C57.586 54.3053 56.9766 54.5573 56.6185 54.8155C56.2541 55.0801 56.1284 55.3257 56.1913 55.3887L56.1975 55.395Z" fill="#263238"/>
<path d="M68.2668 58.9407C68.2291 59.5076 68.6815 60.0052 69.2658 60.0492C69.85 60.0996 70.3589 59.6776 70.3966 59.117C70.4343 58.5502 69.982 58.0526 69.3977 58.0085C68.8071 57.9581 68.3045 58.3801 68.2668 58.947V58.9407Z" fill="#263238"/>
<path d="M67.4999 55.9292C67.6318 56.0741 68.4548 55.4946 69.6045 55.5324C70.7542 55.5513 71.5835 56.1685 71.7091 56.03C71.772 55.967 71.6463 55.715 71.2819 55.4316C70.9301 55.1545 70.3207 54.8773 69.6045 54.8584C68.8883 54.8395 68.2789 55.0915 67.9208 55.3497C67.5627 55.6143 67.4308 55.8599 67.4936 55.9229L67.4999 55.9292Z" fill="#263238"/>
<path d="M63.0824 64.3651C63.0887 64.3021 62.3788 64.1572 61.2228 63.9746C60.9275 63.9368 60.6511 63.8675 60.6071 63.6659C60.5443 63.4518 60.6762 63.1368 60.827 62.7967C61.1223 62.0913 61.4364 61.3543 61.7568 60.5796C63.051 57.424 63.9997 54.8226 63.874 54.7722C63.7484 54.7218 62.5924 57.2413 61.2982 60.3969C60.9841 61.178 60.6888 61.9212 60.3998 62.6267C60.2804 62.9605 60.0794 63.3321 60.2176 63.7793C60.293 63.9998 60.5003 64.1698 60.6888 64.2265C60.8773 64.2895 61.0406 64.2958 61.1851 64.3084C62.3474 64.4029 63.0699 64.4281 63.0761 64.3651H63.0824Z" fill="#263238"/>
<path d="M62.4043 78.5503C62.4043 78.5503 67.4994 79.0479 73.1474 75.8545C73.1474 75.8545 70.7349 82.0713 62.4169 81.0509L62.4043 78.5503Z" fill="#FF9A6C"/>
<path d="M63.1775 67.1114C63.7555 66.3366 64.679 65.8831 65.5397 65.9398C66.1366 65.9776 66.7208 66.2736 67.0287 66.809C67.3428 67.3444 67.3365 68.1254 66.947 68.6734C66.5072 69.2907 65.7094 69.4671 65.0623 69.2907C64.4152 69.1143 63.8937 68.6545 63.3974 68.1947C63.2592 68.0688 63.121 67.9365 63.0456 67.7538C62.9702 67.5712 62.9765 67.3318 63.1084 67.1681" fill="#FF9A6C"/>
<path d="M66.4458 65.2595C66.2573 65.2406 66.2196 66.494 65.1265 67.3506C64.0333 68.2136 62.7077 68.0309 62.6952 68.2073C62.6763 68.2828 62.9841 68.4592 63.5433 68.4907C64.0961 68.5285 64.9003 68.371 65.5725 67.8482C66.2385 67.3192 66.54 66.6011 66.5966 66.0909C66.6594 65.5681 66.5275 65.2532 66.4458 65.2595Z" fill="#263238"/>
<path d="M67.123 51.1689C67.2298 51.4838 68.3795 51.3704 69.724 51.572C71.0747 51.7484 72.149 52.1704 72.3375 51.8995C72.4192 51.7673 72.237 51.4649 71.8098 51.15C71.3826 50.8351 70.6915 50.5264 69.8873 50.413C69.0769 50.2997 68.3356 50.413 67.8393 50.5957C67.3367 50.7847 67.0791 51.024 67.1293 51.1689H67.123Z" fill="#263238"/>
<path d="M56.7114 51.4335C56.9062 51.6981 57.704 51.4524 58.659 51.465C59.6139 51.4461 60.4118 51.6918 60.6066 51.4209C60.6945 51.2886 60.5751 51.0241 60.2296 50.7659C59.8903 50.5076 59.3124 50.2935 58.659 50.2935C58.0056 50.2935 57.4276 50.5139 57.0884 50.7785C56.7428 51.0367 56.6234 51.3075 56.7114 51.4335Z" fill="#263238"/>
<path d="M49.203 50.0522C49.5925 48.7987 50.3025 47.6082 51.402 46.8901C52.0051 46.4996 52.7025 46.2602 53.2554 45.8067C54.4617 44.8304 54.7381 43.1359 55.4795 41.7754C56.4408 40.0179 58.2879 38.7897 60.2733 38.5881C61.9256 38.418 63.6283 38.9156 65.2367 38.5062C66.4241 38.2039 67.4671 37.4291 68.6734 37.2023C71.0231 36.7551 73.2032 38.4432 74.9059 40.125C74.9122 41.8132 73.5739 42.9344 72.286 44.0178C70.998 45.1012 69.22 45.5673 67.5676 45.265C66.2859 45.0319 64.8786 44.3831 63.7665 45.0634C62.5979 45.7815 62.5476 47.5515 61.5173 48.4523C60.0345 49.7372 57.6848 48.5341 55.8062 49.0884C54.3549 49.5231 53.4502 50.9088 52.4826 52.0804C51.5214 53.2521 50.0763 54.3607 48.625 53.9323C48.7192 52.6222 48.8135 51.3057 49.203 50.0522Z" fill="#263238"/>
<path d="M66.8322 42.9286C67.8877 42.6263 70.0364 41.946 70.6018 41.0264C71.827 39.0359 73.9883 37.6816 76.1998 37.8013C78.4113 37.921 80.5286 39.6721 80.981 42.009C83.6512 42.0279 86.2585 43.7097 87.5465 46.2419C87.7036 46.5568 87.8481 46.8844 87.9612 47.2245C88.7968 48.6922 88.9539 50.5315 88.3507 52.1125C87.9863 53.0637 87.3643 54.1282 87.8544 55.0226C88.3507 55.936 89.6073 55.9612 90.5874 56.3013C92.29 56.8871 93.3958 58.8524 93.0188 60.6224C92.8806 61.2586 92.579 61.8885 92.711 62.5247C92.8492 63.1861 93.4146 63.6522 93.8481 64.1687C94.9225 65.4537 95.2555 67.3182 94.69 68.8992C94.1246 70.474 92.6795 71.7023 91.0335 72.0046C90.2858 72.1432 89.4753 72.1117 88.8219 72.5085C88.0806 72.9684 87.7538 73.8628 87.2324 74.562C86.2271 75.9037 84.336 76.4958 82.7465 75.973C82.426 75.8659 82.1245 75.7084 81.8417 75.5194C81.3391 76.2186 80.5538 76.691 79.2093 76.691L79.5171 59.0729C79.3475 59.4445 79.0271 59.7783 78.449 59.9106C75.6281 60.5531 75.2134 54.7203 75.848 53.1455C74.8302 52.2385 73.7935 51.3189 73.0144 50.1598C72.2354 49.0071 71.5505 45.8577 71.7139 44.4404C70.6961 44.4971 66.3673 43.0672 66.8259 42.9349L66.8322 42.9286Z" fill="#263238"/>
<path d="M78.7369 60.497C78.8249 58.7082 81.0112 58.324 82.563 59.2184C83.4111 59.7097 84.0645 60.6986 83.9828 62.6008C83.7755 67.6712 78.7432 66.4178 78.7369 66.2729C78.7369 66.1847 78.6301 62.5945 78.7369 60.497Z" fill="#FFBF9D"/>
<path d="M80.3643 64.4207C80.3643 64.4207 80.4522 64.4837 80.5967 64.5592C80.7412 64.6348 80.9862 64.6852 81.2564 64.597C81.7967 64.4207 82.2804 63.5893 82.3432 62.6759C82.3747 62.2161 82.2993 61.7689 82.1485 61.4036C82.0103 61.0257 81.7841 60.7549 81.5139 60.6982C81.2501 60.6226 81.049 60.7801 80.9862 60.9186C80.9108 61.0572 80.9422 61.158 80.9108 61.1706C80.8983 61.1832 80.804 61.0824 80.8543 60.8745C80.8794 60.7737 80.9422 60.6604 81.0679 60.5659C81.1935 60.4714 81.3757 60.4273 81.5579 60.4588C81.9474 60.5029 82.2804 60.8745 82.4438 61.2839C82.6259 61.6934 82.7265 62.1909 82.6888 62.7074C82.6134 63.7278 82.0542 64.66 81.3129 64.8427C80.9548 64.9183 80.6595 64.7986 80.515 64.6726C80.3643 64.5403 80.3391 64.427 80.358 64.4207H80.3643Z" fill="#FF9A6C"/>
<path d="M73.7938 41.5566C73.7561 41.6133 74.3027 41.7014 74.8054 42.4006C75.308 43.0935 75.4965 44.4163 75.176 45.9091L75.1509 46.0351L75.2766 46.0666C76.5268 46.3816 77.9028 47.3768 78.5373 48.9452C78.6881 49.3295 78.7887 49.7578 78.8012 50.1798C78.8012 50.6082 78.7258 51.0617 78.6441 51.5215C78.5625 51.9813 78.4682 52.4601 78.4494 52.964C78.418 53.4616 78.5499 54.0348 78.8515 54.4631C79.4798 55.4206 80.4913 55.893 81.3583 56.3528C82.2505 56.8 83.0798 57.2536 83.7081 57.8961C84.9898 59.1621 85.5615 60.7936 85.5992 62.1416C85.6494 63.5084 85.2662 64.5918 84.9332 65.2721C84.6002 65.965 84.3175 66.2926 84.3426 66.3178C84.3552 66.3241 84.4243 66.2485 84.5562 66.091C84.6819 65.9272 84.8641 65.6816 85.0526 65.3414C85.4295 64.6611 85.8631 63.5651 85.8505 62.1353C85.8505 60.7243 85.2725 59.0047 83.9405 57.6567C83.2871 56.9701 82.4012 56.4788 81.5217 56.0379C80.6546 55.578 79.6997 55.1119 79.1531 54.2679C78.5939 53.4994 78.8452 52.4915 78.9897 51.5845C79.0714 51.1247 79.153 50.6586 79.1468 50.1798C79.1279 49.6948 79.0148 49.2476 78.8515 48.8256C78.1541 47.1437 76.6839 46.117 75.3457 45.8147L75.4462 45.9721C75.7478 44.41 75.509 43.0368 74.9373 42.3187C74.6609 41.9597 74.3593 41.7644 74.1457 41.6699C73.9258 41.5818 73.8127 41.544 73.8064 41.5566H73.7938Z" fill="#455A64"/>
<path d="M82.2511 66.3163C81.8804 65.9195 81.3527 65.5479 80.8124 65.3652H80.9192C80.8187 65.3275 80.7119 65.3212 80.6114 65.3086C80.2156 65.2141 79.8198 65.233 79.4868 65.4471H79.4994C78.8837 65.6739 78.3434 66.1274 78.0481 66.7132C77.533 67.7398 77.7214 69.05 78.4188 69.9633C79.0219 70.7569 80.0648 71.2797 81.0323 71.0403C81.9244 70.8262 82.5841 70.0137 82.8354 69.1318C83.1118 68.1681 82.9359 67.047 82.2511 66.31V66.3163Z" fill="#455A64"/>
<path d="M91.7773 131.859L91.8715 110.55L93.8506 114.486L106.215 102.166C106.215 102.166 100.234 91.2559 97.4632 89.1457C94.6925 87.0356 83.8735 84.8372 83.1761 84.4278C83.1761 84.4278 80.374 89.1646 71.6409 91.785C62.9079 94.4117 55.5884 83.1113 55.5884 83.1113L45.6491 83.5523C45.6491 83.5523 44.8072 98.506 44.6564 108.742C44.6124 111.753 44.7883 114.379 44.8637 116.067C45.1904 123.5 52.6732 136.293 52.6732 136.293C52.6732 136.293 63.2911 140.092 74.531 138.693C85.7646 137.295 91.7835 131.859 91.7835 131.859H91.7773Z" fill="#455A64"/>
<path d="M45.6482 83.5513C40.465 84.6473 35.8283 91.1793 30.2617 103.985L45.3781 115.292L45.6482 83.5513Z" fill="#455A64"/>
<path d="M92.5236 97.499C92.5236 97.499 92.5801 97.7383 92.6178 98.1667C92.6555 98.6013 92.6869 99.2249 92.7121 99.9997C92.7623 101.549 92.7561 103.697 92.6116 106.059C92.4671 108.421 92.2157 110.557 91.9833 112.087C91.8639 112.856 91.7571 113.473 91.6691 113.895C91.5812 114.317 91.5184 114.55 91.4932 114.55C91.4367 114.544 91.5498 113.593 91.7194 112.05C91.889 110.513 92.0964 108.384 92.2409 106.034C92.3791 103.678 92.4294 101.543 92.4482 99.9997C92.4671 98.4501 92.4671 97.4927 92.5236 97.4927V97.499Z" fill="#263238"/>
<path d="M46.1208 94.165C46.1208 94.165 46.1208 94.4673 46.0454 95.0028C45.9574 95.6138 45.8506 96.3696 45.7187 97.2578C45.4422 99.1601 45.0653 101.793 44.8517 104.709C44.6318 107.632 44.6443 110.284 44.7134 112.205C44.7574 113.1 44.7888 113.862 44.8202 114.479C44.8454 115.015 44.8517 115.317 44.8202 115.317C44.7951 115.317 44.7448 115.027 44.6695 114.492C44.5941 113.956 44.5187 113.182 44.4433 112.218C44.3051 110.297 44.2485 107.62 44.4684 104.678C44.6883 101.736 45.103 99.1034 45.4485 97.2074C45.6182 96.2625 45.7752 95.4941 45.8946 94.9713C46.014 94.4421 46.0894 94.1587 46.1145 94.1587L46.1208 94.165Z" fill="#263238"/>
<path d="M69.7777 101.966L70.2866 122.311C70.3117 123.351 69.4949 124.213 68.4583 124.239L59.9074 124.434C58.9084 124.459 58.0665 123.684 57.9974 122.683L56.6152 102.558C56.5398 101.506 57.3503 100.599 58.3995 100.555L67.83 100.133C68.8792 100.088 69.7588 100.914 69.7839 101.959L69.7777 101.966Z" fill="#263238"/>
<path d="M62.3504 104.285C62.3692 104.719 62.7399 105.06 63.1734 105.041C63.6069 105.022 63.9461 104.65 63.9273 104.216C63.9084 103.781 63.5377 103.441 63.1043 103.46C62.6708 103.479 62.3315 103.85 62.3504 104.285Z" fill="white"/>
<path d="M57.0241 107.205C57.0241 107.205 54.7057 110.216 53.8638 111.545C53.0219 112.874 52.8837 117.082 52.8837 117.082L52.9214 120.011L48.291 122.064L51.8659 132.06L58.8901 125.969L65.9833 124.634C65.9833 124.634 69.2567 121.258 69.7656 119.746C70.2808 118.234 70.1614 117.075 70.1614 117.075C70.1614 117.075 71.6127 113.523 71.8829 112.282C72.153 111.041 72.0525 108.849 72.0525 108.849C72.0525 108.849 71.1415 108.628 70.4315 110.146L71.5436 107.576C71.5436 107.576 70.8148 105.668 69.2252 107.614C67.6357 109.561 65.0095 112.842 65.0095 112.842L61.9686 115.5L61.5603 115.066C61.5603 115.066 66.8566 107.98 66.6744 106.758C66.4922 105.536 65.3299 105.523 64.1676 106.871C63.0053 108.219 58.2681 114.889 57.6272 114.984C56.9864 115.078 56.7539 114.184 56.7539 114.184L57.0932 111.715L57.3257 111.186L57.0178 107.192L57.0241 107.205Z" fill="#FFBF9D"/>
<path d="M66.1583 117.019C66.1583 117.019 66.2399 116.937 66.3719 116.767C66.5038 116.597 66.686 116.352 66.9059 116.043C67.3457 115.426 67.9362 114.557 68.5393 113.568C69.1487 112.579 69.6639 111.665 70.0157 110.998C70.1916 110.664 70.3298 110.387 70.4241 110.198C70.5183 110.009 70.5623 109.896 70.5497 109.896C70.5434 109.896 70.4743 109.99 70.3675 110.173C70.2419 110.387 70.0974 110.645 69.9152 110.947C69.5382 111.602 69.0105 112.509 68.4011 113.492C67.7917 114.475 67.22 115.35 66.8054 115.986C66.6106 116.282 66.4473 116.534 66.3153 116.736C66.2022 116.912 66.1394 117.013 66.152 117.019H66.1583Z" fill="#FF9A6C"/>
<path d="M67.8059 120.18C67.8436 120.206 68.4844 119.286 69.2383 118.127C69.9922 116.968 70.5765 116.017 70.5451 115.992C70.5074 115.967 69.8666 116.886 69.1127 118.045C68.3588 119.198 67.7745 120.155 67.8059 120.18Z" fill="#FF9A6C"/>
<path d="M32.4334 105.611C32.4334 105.611 24.5987 126.19 24.2281 133.301C23.8951 139.789 29.493 143.707 33.7213 143.09C43.6481 141.647 58.8902 125.982 58.8902 125.982L53.1603 119.884L39.7717 125.9L43.9371 114.209L32.4397 105.611H32.4334Z" fill="#FFBF9D"/>
<g opacity="0.3">
<path d="M106.004 124.998C107.663 120.935 106.425 116.016 103.46 112.778C100.501 109.541 96.0649 107.897 91.6921 107.745C84.3224 107.487 76.9401 111.43 73.0574 117.717C69.1683 124.003 68.917 132.381 72.4291 138.887C72.4291 138.887 75.9851 138.717 78.6239 137.369C81.2627 136.021 106.011 125.004 106.011 125.004L106.004 124.998Z" fill="black"/>
</g>
<path d="M99.0547 142.61C106.98 137.874 109.575 127.593 104.85 119.647C100.126 111.702 89.8715 109.1 81.9464 113.837C74.0213 118.573 71.4265 128.854 76.1508 136.8C80.8752 144.745 91.1296 147.347 99.0547 142.61Z" fill="#06B6D4"/>
<path d="M89.3114 136.028L80.6475 128.752L83.1794 125.723L88.991 130.604L97.9 121.105L100.771 123.82L89.3114 136.028Z" fill="white"/>
<path d="M49.8486 116.25C49.8486 116.25 49.5596 116.407 49.0256 116.628C48.435 116.886 47.6748 117.22 46.7638 117.616C44.8098 118.498 42.2088 119.676 39.3375 120.974C36.4663 122.284 33.8715 123.462 31.9176 124.356C31.0066 124.759 30.2464 125.1 29.6621 125.358C29.128 125.591 28.8264 125.711 28.8139 125.685C28.8013 125.667 29.084 125.509 29.6055 125.238C30.127 124.974 30.8809 124.596 31.817 124.142C33.6956 123.229 36.303 122.001 39.1993 120.671C42.0957 119.349 44.7407 118.19 46.6695 117.402C47.6371 117.005 48.4287 116.703 48.9753 116.508C49.5282 116.319 49.8361 116.224 49.8486 116.25Z" fill="#FF9A6C"/>
<path d="M137.174 9.57653L95.4174 2.85928C93.3056 2.51704 91.321 3.96142 90.9854 6.07289L84.2854 47.9368C83.9441 50.0541 85.3847 52.0437 87.4908 52.3802L88.7405 52.5832L100.358 54.451L129.247 59.0974C131.359 59.4397 133.344 57.9953 133.679 55.8838L140.379 14.0199C140.721 11.9026 139.28 9.91298 137.174 9.57653Z" fill="white"/>
<path d="M138.492 25.8281L89.0945 17.8778L91.0863 5.43787C91.3688 3.67383 93.0262 2.47184 94.7858 2.75502L137.671 9.6572C139.505 9.95234 140.756 11.6872 140.462 13.5257L138.492 25.8281Z" fill="#06B6D4"/>
<path d="M109.506 27.6747L106.81 44.5085L102.922 43.882L105.115 30.1749L101.759 29.6354L102.262 26.5088L109.506 27.6747Z" fill="#263238"/>
<path d="M125.579 30.2618L125.174 32.7851L116.645 46.092L112.422 45.4133L120.632 32.7213L115.066 31.828L114.626 34.5718L111.172 34.0149L112.121 28.0981L125.579 30.2618Z" fill="#263238"/>
<path d="M107.979 13.9795C107.967 14.0665 111.346 14.6872 115.535 15.3601C119.724 16.033 123.126 16.5086 123.143 16.4216C123.155 16.3346 119.776 15.7197 115.587 15.041C111.404 14.3682 107.996 13.8925 107.984 13.9795H107.979Z" fill="#263238"/>
<path d="M137.173 9.57668C137.173 9.57668 137.341 9.59409 137.665 9.6753C137.983 9.75651 138.458 9.94213 138.973 10.3366C139.476 10.7368 140.037 11.3749 140.309 12.2972C140.448 12.7555 140.512 13.2718 140.454 13.8228C140.39 14.3681 140.286 14.9366 140.194 15.5398C139.424 20.3951 138.319 27.4081 136.954 36.0686C136.265 40.4018 135.513 45.1468 134.703 50.2398C134.5 51.516 134.292 52.8096 134.084 54.1263C133.974 54.7876 133.887 55.4431 133.754 56.1218C133.615 56.8063 133.274 57.4501 132.799 57.9722C132.319 58.4885 131.7 58.8945 131.011 59.0976C130.329 59.3238 129.571 59.3006 128.882 59.1672C127.488 58.9467 126.082 58.7205 124.653 58.4885C113.226 56.6554 100.665 54.6368 87.4788 52.5195C85.7546 52.2643 84.3255 50.7735 84.1346 49.0565C84.0709 48.633 84.1114 48.198 84.1751 47.7861L84.3718 46.568C84.4991 45.7559 84.6322 44.9496 84.7594 44.1433C85.2744 40.9239 85.7835 37.7508 86.2811 34.6359C87.2821 28.4001 88.2483 22.3905 89.1683 16.6594C89.6311 13.7938 90.0766 11.0037 90.5164 8.28892C90.6263 7.61023 90.7362 6.93735 90.8404 6.27027C90.8866 5.93962 90.9676 5.59158 91.0834 5.26674C91.2164 4.9477 91.3669 4.63446 91.5752 4.36182C91.9686 3.79915 92.524 3.3641 93.1258 3.07406C93.7391 2.79563 94.416 2.66801 95.0756 2.71442C100.179 3.50331 104.894 4.29222 109.222 4.9883C117.854 6.39788 124.844 7.53483 129.681 8.32373C132.093 8.72398 133.962 9.03141 135.241 9.24604C135.872 9.35626 136.352 9.43747 136.687 9.48967C137.011 9.54768 137.179 9.58248 137.179 9.58248C137.179 9.58248 137.011 9.56508 136.682 9.51868C136.346 9.46647 135.866 9.39686 135.235 9.29825C133.956 9.10102 132.082 8.80519 129.669 8.42814C124.826 7.65664 117.837 6.5487 109.193 5.17973C104.877 4.50104 100.127 3.71794 95.064 2.94064C94.4392 2.90004 93.8027 3.02185 93.2299 3.28289C92.6629 3.56132 92.1422 3.96737 91.7719 4.50104C91.5752 4.75627 91.4363 5.05791 91.309 5.35375C91.1991 5.66119 91.1239 5.97443 91.0776 6.31087C90.9734 6.97795 90.8635 7.65084 90.7536 8.32953C90.3196 11.0443 89.8741 13.8344 89.417 16.7C88.5029 22.4311 87.5424 28.4407 86.5473 34.6765C86.0497 37.7915 85.5405 40.9645 85.0256 44.1839C84.8983 44.9902 84.7652 45.7965 84.6379 46.6086C84.5338 47.4265 84.2966 48.2328 84.4065 49.0217C84.5801 50.6227 85.9108 52.0149 87.5193 52.2469C100.705 54.37 113.266 56.4002 124.688 58.239C126.117 58.4711 127.528 58.6973 128.917 58.9235C129.605 59.0569 130.288 59.0744 130.936 58.8655C131.584 58.6799 132.163 58.297 132.62 57.8156C133.065 57.3225 133.389 56.7192 133.517 56.0754C133.644 55.4257 133.737 54.747 133.847 54.0973C134.061 52.7806 134.269 51.487 134.471 50.2108C135.293 45.1178 136.057 40.3728 136.757 36.0396C138.163 27.3849 139.297 20.3777 140.084 15.5224C140.176 14.9192 140.286 14.3449 140.356 13.8112C140.413 13.2776 140.356 12.7671 140.228 12.3204C139.968 11.4155 139.43 10.7832 138.938 10.383C138.435 9.98273 137.972 9.79711 137.659 9.7043C137.503 9.64629 137.382 9.63469 137.301 9.61149C137.22 9.59409 137.179 9.57668 137.179 9.57668H137.173Z" fill="#263238"/>
<path d="M106.6 9.55452L107.892 1.48499C108.03 0.625919 108.838 0.0393731 109.695 0.177282L109.804 0.19475C110.661 0.332658 111.246 1.14354 111.108 2.00261L109.816 10.0721C109.679 10.9312 108.87 11.5178 108.013 11.3798L107.904 11.3624C107.048 11.2245 106.462 10.4136 106.6 9.55452Z" fill="#E0E0E0"/>
<path d="M107.909 11.363C107.932 11.3224 107.504 11.3224 107.058 10.8409C106.85 10.6031 106.659 10.2261 106.676 9.77363C106.723 9.32699 106.844 8.77595 106.937 8.1901C107.139 6.98941 107.376 5.5915 107.637 4.04277C107.764 3.25971 107.897 2.44185 108.036 1.58918C108.088 1.18895 108.291 0.829318 108.615 0.585698C108.944 0.347879 109.355 0.260872 109.777 0.347879C110.182 0.411684 110.547 0.661104 110.755 1.00333C110.975 1.35136 111.016 1.74579 110.923 2.16342C110.79 3.01609 110.663 3.83396 110.541 4.61702C110.304 6.17154 110.09 7.57525 109.911 8.77595C109.87 9.07177 109.824 9.35019 109.789 9.62282C109.743 9.88964 109.731 10.1449 109.65 10.3537C109.494 10.7771 109.182 11.0555 108.898 11.2005C108.302 11.479 107.903 11.3166 107.909 11.363C107.909 11.3746 107.996 11.4036 108.175 11.4326C108.354 11.4558 108.626 11.45 108.95 11.3166C109.263 11.1831 109.627 10.8931 109.818 10.4233C109.916 10.1855 109.934 9.92444 109.986 9.66342C110.032 9.3966 110.078 9.11238 110.13 8.82235C110.333 7.62166 110.57 6.22375 110.83 4.67502C110.958 3.89196 111.091 3.0741 111.23 2.22143C111.328 1.79799 111.293 1.25275 111.021 0.846719C110.767 0.429086 110.321 0.121661 109.824 0.0462553C109.355 -0.0523526 108.811 0.0462553 108.424 0.342079C108.024 0.626301 107.776 1.09614 107.724 1.54857C107.591 2.40124 107.463 3.21911 107.342 4.00217C107.105 5.55669 106.89 6.96041 106.711 8.1611C106.63 8.75855 106.532 9.27479 106.497 9.77363C106.497 10.2841 106.723 10.6843 106.966 10.9279C107.209 11.1773 107.469 11.2817 107.643 11.3282C107.816 11.3746 107.915 11.3688 107.915 11.363H107.909Z" fill="#263238"/>
<path d="M121.67 11.9803L122.962 3.91077C123.1 3.0517 123.909 2.46515 124.766 2.60306L124.874 2.62053C125.731 2.75844 126.316 3.56932 126.179 4.42839L124.886 12.4979C124.749 13.357 123.94 13.9435 123.083 13.8056L122.975 13.7882C122.118 13.6503 121.533 12.8394 121.67 11.9803Z" fill="#E0E0E0"/>
<path d="M122.992 13.7873C123.015 13.7467 122.587 13.7467 122.141 13.2652C121.933 13.0274 121.742 12.6504 121.759 12.1979C121.806 11.7513 121.927 11.2003 122.02 10.6144C122.222 9.41372 122.459 8.01581 122.72 6.46709C122.847 5.68403 122.98 4.86616 123.119 4.01349C123.171 3.61326 123.374 3.25363 123.698 3.01001C124.027 2.7722 124.438 2.68519 124.86 2.7722C125.265 2.836 125.63 3.08542 125.838 3.42765C126.058 3.77568 126.099 4.17011 126.006 4.58774C125.873 5.44041 125.746 6.25827 125.624 7.04133C125.387 8.59586 125.173 9.99957 124.994 11.2003C124.953 11.4961 124.907 11.7745 124.872 12.0471C124.826 12.314 124.814 12.5692 124.733 12.778C124.577 13.2014 124.265 13.4798 123.981 13.6249C123.385 13.9033 122.986 13.7409 122.992 13.7873C122.992 13.7989 123.079 13.8279 123.258 13.8569C123.437 13.8801 123.709 13.8743 124.033 13.7409C124.346 13.6075 124.71 13.3174 124.901 12.8476C124.999 12.6098 125.022 12.3488 125.069 12.0877C125.115 11.8209 125.161 11.5367 125.213 11.2467C125.416 10.046 125.653 8.64806 125.913 7.09934C126.041 6.31628 126.174 5.49841 126.313 4.64574C126.411 4.22231 126.376 3.67707 126.104 3.27104C125.85 2.8534 125.404 2.54598 124.907 2.47057C124.438 2.37196 123.894 2.47057 123.507 2.7664C123.107 3.05062 122.859 3.52045 122.807 3.97289C122.674 4.82556 122.546 5.64342 122.425 6.42649C122.188 7.98101 121.973 9.38472 121.794 10.5854C121.713 11.1829 121.615 11.6991 121.58 12.1979C121.58 12.7084 121.806 13.1086 122.049 13.3522C122.292 13.6017 122.552 13.7061 122.726 13.7525C122.899 13.7989 122.998 13.7931 122.998 13.7873H122.992Z" fill="#263238"/>
</g>
<defs>
<clipPath id="clip0_499_1538">
<rect width="140" height="250" fill="white" transform="translate(0.5)"/>
</clipPath>
</defs>
</svg>
