<svg width="251" height="250" viewBox="0 0 251 250" fill="none" xmlns="http://www.w3.org/2000/svg">
<g clip-path="url(#clip0_499_1357)">
<path d="M37.1107 228.657C-11.7036 200.198 -11.7036 154.064 37.1107 125.605C85.9251 97.146 165.07 97.146 213.889 125.605C262.704 154.064 262.704 200.198 213.889 228.657C165.075 257.116 85.9303 257.116 37.1107 228.657Z" fill="#F0F0F0"/>
<path d="M103.253 234.027L28.7281 190.551C25.8217 188.858 25.8217 186.083 28.7281 184.39L149.397 113.994C150.596 113.294 152.556 113.294 153.749 113.994L230.103 158.537C231.638 159.434 231.638 161.673 230.103 162.565L107.605 234.022C106.406 234.722 104.446 234.722 103.253 234.022V234.027Z" fill="#E0E0E0"/>
<path d="M196.078 227.999C211.334 227.999 223.701 220.791 223.701 211.899C223.701 203.007 211.334 195.799 196.078 195.799C180.822 195.799 168.454 203.007 168.454 211.899C168.454 220.791 180.822 227.999 196.078 227.999Z" fill="#E0E0E0"/>
<path d="M36.4222 165.292C36.4222 165.292 36.2646 153.963 31.6028 144.719C26.9411 135.475 19.8933 129.282 12.877 128.009C5.85546 126.735 -0.503857 132.731 6.62278 138.006C13.7494 143.281 26.7414 149.235 31.2665 166.741L36.4222 165.297V165.292Z" fill="#06B6D4"/>
<path opacity="0.15" d="M36.4222 165.292C36.4222 165.292 36.2646 153.963 31.6028 144.719C26.9411 135.475 19.8933 129.282 12.877 128.009C5.85546 126.735 -0.503857 132.731 6.62278 138.006C13.7494 143.281 26.7414 149.235 31.2665 166.741L36.4222 165.297V165.292Z" fill="black"/>
<path d="M34.6351 162.177C34.6351 162.177 34.6877 162.172 34.714 162.161C34.9137 162.103 35.0293 161.891 34.9715 161.684C29.3375 142.368 15.8883 133.188 9.5605 131.033C9.36079 130.964 9.14531 131.076 9.07699 131.272C9.00866 131.474 9.11378 131.691 9.31349 131.76C15.5099 133.872 28.691 142.888 34.2357 161.901C34.2883 162.076 34.4564 162.188 34.6299 162.177H34.6351Z" fill="white"/>
<path d="M37.1318 175.98C34.525 177.492 33.0324 178.474 28.2498 178.877C25.396 179.121 21.5383 178.712 18.2115 177.502C17.3233 177.179 15.9516 176.473 16.7242 175.613C17.1236 175.168 21.8116 174.419 23.4882 172.424C21.5278 172.955 18.9421 173.554 16.9134 173.602C14.8847 173.645 12.7667 173.156 11.211 171.84C9.66586 170.535 8.82496 168.582 8.04187 166.709C7.77384 166.067 7.52156 165.282 7.9315 164.724C8.19429 164.369 8.64627 164.231 9.06672 164.114C10.8431 163.615 12.6195 163.117 14.3959 162.618C15.5522 162.368 14.7375 161.594 14.2961 161.53C13.534 161.418 12.8087 161.418 12.3673 161.445C10.3333 161.556 8.08917 161.944 6.42839 160.75C5.43508 160.039 4.84645 158.855 4.59943 157.651C4.51009 157.226 4.16321 151.686 4.40497 151.617C5.72414 151.251 7.11162 151.06 8.46758 150.901C9.75521 150.752 11.0113 150.694 12.2937 150.519C13.7442 150.323 15.2053 150.227 16.6664 150.227C17.1604 150.227 17.686 150.248 18.1064 150.519C18.6845 150.885 18.9105 151.623 18.9841 152.302C19.0577 152.986 19.0209 153.698 19.2574 154.34C19.8828 154.287 20.0878 153.464 20.072 152.833C20.0563 152.201 20.072 151.41 20.6344 151.14C20.9234 151.002 21.2598 151.055 21.5699 151.124C23.5565 151.532 25.4906 152.185 27.3248 153.055C28.1657 153.453 29.0013 153.915 29.6057 154.626C30.4939 155.677 30.762 157.131 30.7672 158.51C30.7725 159.89 30.5623 161.275 30.6516 162.65C31.7238 161.684 33.2111 158.749 33.3267 157.306C35.6287 158.802 36.9952 161.88 37.4209 166.093C37.7047 168.874 37.6363 172.53 37.2527 175.348C37.2422 175.444 37.2159 175.937 37.1318 175.985V175.98Z" fill="#06B6D4"/>
<path opacity="0.3" d="M37.1318 175.98C34.525 177.492 33.0324 178.474 28.2498 178.877C25.396 179.121 21.5383 178.712 18.2115 177.502C17.3233 177.179 15.9516 176.473 16.7242 175.613C17.1236 175.168 21.8116 174.419 23.4882 172.424C21.5278 172.955 18.9421 173.554 16.9134 173.602C14.8847 173.645 12.7667 173.156 11.211 171.84C9.66586 170.535 8.82496 168.582 8.04187 166.709C7.77384 166.067 7.52156 165.282 7.9315 164.724C8.19429 164.369 8.64627 164.231 9.06672 164.114C10.8431 163.615 12.6195 163.117 14.3959 162.618C15.5522 162.368 14.7375 161.594 14.2961 161.53C13.534 161.418 12.8087 161.418 12.3673 161.445C10.3333 161.556 8.08917 161.944 6.42839 160.75C5.43508 160.039 4.84645 158.855 4.59943 157.651C4.51009 157.226 4.16321 151.686 4.40497 151.617C5.72414 151.251 7.11162 151.06 8.46758 150.901C9.75521 150.752 11.0113 150.694 12.2937 150.519C13.7442 150.323 15.2053 150.227 16.6664 150.227C17.1604 150.227 17.686 150.248 18.1064 150.519C18.6845 150.885 18.9105 151.623 18.9841 152.302C19.0577 152.986 19.0209 153.698 19.2574 154.34C19.8828 154.287 20.0878 153.464 20.072 152.833C20.0563 152.201 20.072 151.41 20.6344 151.14C20.9234 151.002 21.2598 151.055 21.5699 151.124C23.5565 151.532 25.4906 152.185 27.3248 153.055C28.1657 153.453 29.0013 153.915 29.6057 154.626C30.4939 155.677 30.762 157.131 30.7672 158.51C30.7725 159.89 30.5623 161.275 30.6516 162.65C31.7238 161.684 33.2111 158.749 33.3267 157.306C35.6287 158.802 36.9952 161.88 37.4209 166.093C37.7047 168.874 37.6363 172.53 37.2527 175.348C37.2422 175.444 37.2159 175.937 37.1318 175.985V175.98Z" fill="black"/>
<path d="M36.7009 175.46C36.5852 175.46 36.4749 175.396 36.4223 175.29C28.9646 160.835 12.4724 154.743 8.46235 153.905C8.29417 153.867 8.1838 153.698 8.21534 153.528C8.25213 153.358 8.42031 153.247 8.58849 153.278C12.6616 154.133 29.4061 160.315 36.9794 174.993C37.0583 175.146 37.0004 175.343 36.848 175.422C36.8007 175.449 36.7534 175.46 36.7009 175.46Z" fill="white"/>
<path d="M15.0373 167.128C14.8744 167.128 14.7378 167.001 14.722 166.837C14.7062 166.661 14.8376 166.508 15.011 166.492C23.2414 165.839 25.9007 162.586 25.927 162.554C26.0374 162.416 26.2318 162.395 26.3685 162.501C26.5051 162.613 26.5261 162.809 26.421 162.947C26.3107 163.09 23.5988 166.449 15.0583 167.128C15.0478 167.128 15.0426 167.128 15.0321 167.128H15.0373Z" fill="white"/>
<path d="M235.889 126.815C232.242 130.842 225.551 137.47 221.662 143.87C221.652 143.886 221.641 143.902 221.636 143.918C220.117 146.427 219.029 148.9 218.73 151.166L218.456 155.258L216.79 154.286L216.512 154.122L215.823 153.724C214.835 153.146 214.215 152.09 214.189 150.943C213.921 140.967 216.559 132.487 219.113 127.351C222.608 120.341 229.157 113.193 234.849 113.893C240.141 114.546 240.977 121.2 235.889 126.815Z" fill="#06B6D4"/>
<path opacity="0.15" d="M235.889 126.815C232.242 130.842 225.551 137.47 221.662 143.87C221.652 143.886 221.641 143.902 221.636 143.918C220.117 146.427 219.029 148.9 218.73 151.166L218.456 155.258L216.79 154.286L216.512 154.122L215.823 153.724C214.835 153.146 214.215 152.09 214.189 150.943C213.921 140.967 216.559 132.487 219.113 127.351C222.608 120.341 229.157 113.193 234.849 113.893C240.141 114.546 240.977 121.2 235.889 126.815Z" fill="black"/>
<path d="M233.204 117.762C226.235 122.209 216.286 137.709 216.512 154.122L215.823 153.724C215.766 137.21 225.799 121.673 232.836 117.178C232.999 117.072 233.209 117.125 233.309 117.289C233.409 117.449 233.362 117.661 233.204 117.762Z" fill="white"/>
<path d="M240.02 139.964C238.806 143.291 231.879 146.178 226.765 150.98C225.42 152.243 224.248 153.549 223.26 154.828C222.272 156.106 220.501 156.446 219.108 155.634L218.498 155.279L218.456 155.257L216.79 154.286C217.778 150.529 219.555 146.969 221.636 143.917C221.641 143.901 221.651 143.886 221.662 143.87C225.047 138.913 229.225 135.331 232.142 134.52C237.876 132.928 241.476 135.968 240.02 139.964Z" fill="#06B6D4"/>
<path opacity="0.3" d="M240.02 139.964C238.806 143.291 231.879 146.178 226.765 150.98C225.42 152.243 224.248 153.549 223.26 154.828C222.272 156.106 220.501 156.446 219.108 155.634L218.498 155.279L218.456 155.257L216.79 154.286C217.778 150.529 219.555 146.969 221.636 143.917C221.641 143.901 221.651 143.886 221.662 143.87C225.047 138.913 229.225 135.331 232.142 134.52C237.876 132.928 241.476 135.968 240.02 139.964Z" fill="black"/>
<path d="M235.148 137.964C230.959 139.158 222.844 144.315 219.108 155.634L218.498 155.279C222.287 143.822 230.355 138.611 234.964 137.3C235.153 137.247 235.332 137.353 235.384 137.539C235.437 137.725 235.332 137.916 235.148 137.964Z" fill="white"/>
<path d="M32.5278 182.538C32.5278 184.38 33.8943 186.667 35.5761 187.648L101.949 226.349C103.631 227.33 106.364 227.33 108.046 226.349L224.921 158.218C226.603 157.237 227.969 154.95 227.969 153.108C227.969 151.267 226.603 148.98 224.921 147.998L158.547 109.298C156.866 108.316 154.133 108.316 152.451 109.298L35.5761 177.428C33.8943 178.41 32.5278 180.697 32.5278 182.538Z" fill="#455A64"/>
<path d="M227.969 153.108C227.969 154.949 226.603 157.237 224.921 158.218L108.046 226.354C107.205 226.842 106.101 227.086 105.003 227.086V220.421C106.101 220.421 107.205 220.172 108.046 219.683L224.921 151.553C226.398 150.694 226.582 149.367 225.473 148.391C226.892 149.5 227.969 151.474 227.969 153.108Z" fill="#37474F"/>
<path d="M104.998 220.421V227.081C103.894 227.081 102.785 226.837 101.95 226.349L35.5761 187.648C33.8943 186.667 32.5278 184.38 32.5278 182.538C32.5278 180.808 33.7314 178.691 35.266 177.625C33.8996 178.612 34.0047 180.06 35.5761 180.978L101.95 219.679C102.785 220.167 103.894 220.416 104.998 220.416V220.421Z" fill="#263238"/>
<path d="M29.6689 177.54C28.1763 176.479 28.1763 175.067 28.1763 173.104V73.9357C28.1763 71.9723 29.5427 69.5844 31.2245 68.6027L148.094 0.472475C149.776 -0.509228 151.332 0.201843 152.908 1.12517C154.49 2.04851 155.494 2.83918 155.494 4.80258V103.97C155.494 105.934 154.128 108.322 152.446 109.304L35.5709 177.434C33.022 179.169 31.2876 178.697 29.6636 177.545L29.6689 177.54Z" fill="#37474F"/>
<path d="M35.5762 177.428C33.0272 179.158 31.2876 178.691 29.6689 177.534C28.1815 176.473 28.1763 175.056 28.1763 173.098V73.9353C28.1763 72.9536 28.5179 71.8658 29.0645 70.9053L33.4161 73.463C32.8643 74.4182 32.5279 75.506 32.5279 76.4824V175.65C32.5279 177.614 33.8891 178.404 35.5762 177.428Z" fill="#263238"/>
<path d="M155.499 4.797C155.499 2.8389 154.133 2.04292 152.451 3.01932L35.5762 71.1548C34.7353 71.6484 33.968 72.4921 33.4214 73.4579L29.0697 70.9054H29.0645C29.6163 69.9397 30.3836 69.0959 31.2245 68.6024L148.094 0.472197C149.776 -0.509506 151.332 0.201565 152.908 1.11959C154.49 2.04292 155.499 2.8389 155.499 4.797Z" fill="#455A64"/>
<path d="M37.2162 74.7049L149.897 9.03694C150.906 8.44792 151.726 8.92551 151.726 10.1036V101.062C151.726 102.24 150.906 103.673 149.897 104.262L37.2162 169.93C36.2071 170.519 35.3872 170.042 35.3872 168.864V77.9101C35.3872 76.732 36.2071 75.2993 37.2162 74.7102V74.7049Z" fill="#263238"/>
<path d="M37.2162 74.7049C36.2071 75.2939 35.3872 76.7267 35.3872 77.9047V168.312L147.406 103.031C148.415 102.442 149.235 101.009 149.235 99.8312V9.42432L37.2162 74.7049Z" fill="#06B6D4"/>
<path opacity="0.65" d="M37.2162 74.7049C36.2071 75.2939 35.3872 76.7267 35.3872 77.9047V168.312L147.406 103.031C148.415 102.442 149.235 101.009 149.235 99.8312V9.42432L37.2162 74.7049Z" fill="white"/>
<path d="M44.0115 177.609L152.493 114.371C153.334 113.883 154.7 113.883 155.541 114.371L158.7 116.043C159.541 116.531 159.541 117.327 158.7 117.82L50.1974 181.047C49.3565 181.535 47.9901 181.535 47.1492 181.047L44.0115 179.381C43.1706 178.893 43.1706 178.097 44.0115 177.603V177.609Z" fill="#37474F"/>
<path d="M52.5203 182.719L161.002 119.481C161.843 118.993 163.088 118.924 163.787 119.327L192.026 135.788C192.725 136.191 192.604 136.918 191.763 137.412L83.4077 200.564C82.5668 201.052 81.316 201.127 80.617 200.723L52.2628 184.337C51.5638 183.934 51.6794 183.207 52.5203 182.719Z" fill="#263238"/>
<path d="M145.629 145.78L149.024 143.801C149.166 143.716 149.187 143.594 149.072 143.525L146.076 141.779C145.96 141.71 145.745 141.72 145.603 141.805L142.208 143.785C142.066 143.87 142.045 143.992 142.16 144.061L145.156 145.806C145.277 145.875 145.487 145.865 145.629 145.78ZM140.888 139.057L137.493 141.036C137.351 141.121 137.33 141.243 137.446 141.312L140.442 143.058C140.557 143.127 140.773 143.116 140.915 143.031L144.31 141.052C144.452 140.967 144.478 140.845 144.357 140.776L141.361 139.03C141.246 138.961 141.03 138.972 140.888 139.057ZM129.915 145.456L124.165 148.805C124.023 148.889 124.002 149.012 124.118 149.08L127.113 150.826C127.234 150.895 127.445 150.885 127.586 150.8L133.336 147.451C133.478 147.366 133.499 147.244 133.383 147.175L130.388 145.43C130.267 145.361 130.057 145.371 129.915 145.456ZM135.922 141.954L132.527 143.933C132.385 144.018 132.364 144.14 132.479 144.209L135.475 145.955C135.591 146.024 135.806 146.013 135.948 145.928L139.343 143.949C139.485 143.864 139.512 143.742 139.391 143.673L136.395 141.927C136.279 141.858 136.064 141.869 135.922 141.954ZM122.599 149.723L119.204 151.702C119.057 151.787 119.036 151.909 119.156 151.978L122.152 153.724C122.268 153.793 122.483 153.782 122.625 153.697L126.02 151.718C126.162 151.633 126.183 151.511 126.068 151.442L123.072 149.696C122.956 149.627 122.741 149.638 122.599 149.723ZM117.632 152.615L114.237 154.594C114.095 154.679 114.074 154.801 114.19 154.87L117.186 156.616C117.301 156.685 117.517 156.674 117.659 156.589L121.054 154.61C121.196 154.525 121.217 154.403 121.101 154.334L118.105 152.588C117.984 152.519 117.774 152.53 117.632 152.615ZM130.22 160.256L133.615 158.277C133.757 158.192 133.778 158.07 133.662 158.001L130.666 156.255C130.545 156.186 130.335 156.197 130.193 156.281L126.798 158.261C126.656 158.346 126.63 158.468 126.751 158.537L129.747 160.283C129.862 160.352 130.078 160.341 130.22 160.256ZM125.253 163.148L128.648 161.169C128.79 161.084 128.811 160.962 128.695 160.893L125.7 159.147C125.579 159.078 125.369 159.089 125.227 159.173L121.832 161.153C121.69 161.238 121.669 161.36 121.784 161.429L124.78 163.175C124.901 163.244 125.111 163.233 125.253 163.148ZM120.286 166.04L123.682 164.061C123.823 163.976 123.844 163.854 123.729 163.785L120.733 162.039C120.612 161.97 120.402 161.981 120.26 162.066L116.865 164.045C116.723 164.13 116.702 164.252 116.818 164.321L119.813 166.067C119.934 166.136 120.145 166.125 120.286 166.04ZM115.32 168.932L118.715 166.953C118.857 166.868 118.878 166.746 118.762 166.677L115.767 164.931C115.651 164.862 115.435 164.873 115.294 164.958L111.898 166.937C111.757 167.022 111.73 167.144 111.851 167.213L114.847 168.959C114.962 169.028 115.178 169.017 115.32 168.932ZM140.657 148.672L144.052 146.693C144.194 146.608 144.215 146.486 144.1 146.417L141.104 144.671C140.988 144.602 140.773 144.612 140.631 144.697L137.236 146.677C137.094 146.762 137.068 146.884 137.189 146.953L140.184 148.698C140.305 148.767 140.515 148.757 140.663 148.672H140.657ZM135.181 157.359L142.759 152.944C142.901 152.859 142.922 152.737 142.807 152.668L135.097 148.173C134.976 148.104 134.766 148.115 134.624 148.2L130.703 150.487C130.561 150.572 130.54 150.694 130.656 150.763L134.939 153.262C135.055 153.331 135.034 153.453 134.892 153.538L131.754 155.363C131.612 155.448 131.586 155.57 131.707 155.639L134.703 157.385C134.818 157.454 135.034 157.444 135.176 157.359H135.181ZM112.666 155.507L109.271 157.486C109.129 157.571 109.108 157.693 109.223 157.762L112.219 159.508C112.335 159.577 112.55 159.566 112.692 159.481L116.087 157.502C116.229 157.417 116.25 157.295 116.134 157.226L113.139 155.48C113.023 155.411 112.808 155.422 112.666 155.507ZM107.699 158.399L104.304 160.378C104.162 160.463 104.141 160.585 104.257 160.654L107.252 162.4C107.373 162.469 107.584 162.458 107.725 162.373L111.121 160.394C111.262 160.309 111.284 160.187 111.168 160.118L108.172 158.372C108.057 158.303 107.841 158.314 107.699 158.399ZM80.0966 189.219C80.2122 189.288 80.4277 189.277 80.5696 189.192L83.9647 187.213C84.1066 187.128 84.1276 187.006 84.012 186.937L81.0163 185.191C80.8954 185.122 80.6852 185.133 80.5433 185.218L77.1482 187.197C77.0063 187.282 76.9852 187.404 77.1009 187.473L80.0966 189.219ZM67.9823 181.551L64.5872 183.53C64.4453 183.615 64.419 183.737 64.5399 183.806L67.5356 185.552C67.6565 185.621 67.8667 185.61 68.0086 185.526L71.4038 183.546C71.5457 183.461 71.5667 183.339 71.4511 183.27L68.4553 181.524C68.3345 181.455 68.1242 181.466 67.9823 181.551ZM74.0736 187.234C74.1945 187.303 74.4047 187.293 74.5466 187.208L77.9418 185.228C78.0837 185.143 78.1047 185.021 77.9891 184.952L74.9934 183.207C74.8725 183.138 74.6622 183.148 74.5203 183.233L71.1252 185.212C70.9833 185.297 70.9623 185.419 71.0779 185.488L74.0736 187.234ZM87.8907 190.418L91.2858 188.439C91.4277 188.354 91.454 188.232 91.3331 188.163L88.3374 186.417C88.2218 186.348 88.0063 186.359 87.8644 186.444L84.4693 188.423C84.3274 188.508 84.3063 188.63 84.422 188.699L87.4177 190.445C87.5333 190.514 87.7488 190.503 87.8907 190.418ZM82.4511 193.342C82.5667 193.411 82.7822 193.4 82.9241 193.315L86.3192 191.336C86.4611 191.251 86.4822 191.129 86.3665 191.06L83.3708 189.314C83.25 189.245 83.0397 189.256 82.8978 189.341L79.5027 191.32C79.3608 191.405 79.3398 191.527 79.4554 191.596L82.4511 193.342ZM72.9437 178.659L69.5485 180.638C69.4014 180.723 69.3856 180.845 69.5012 180.914L72.4969 182.66C72.6126 182.729 72.828 182.718 72.9699 182.634L76.3651 180.654C76.507 180.569 76.528 180.447 76.4124 180.378L73.4167 178.632C73.301 178.563 73.0856 178.574 72.9437 178.659ZM97.766 164.188L94.3709 166.167C94.229 166.252 94.208 166.374 94.3236 166.443L97.3193 168.189C97.4402 168.258 97.6504 168.248 97.7923 168.163L101.187 166.183C101.329 166.098 101.35 165.976 101.235 165.907L98.239 164.162C98.1234 164.093 97.9079 164.103 97.766 164.188ZM77.9102 175.762L74.5151 177.741C74.3732 177.826 74.3522 177.948 74.4678 178.017L77.4635 179.763C77.5844 179.832 77.7946 179.821 77.9365 179.736L81.3316 177.757C81.4736 177.672 81.4946 177.55 81.3789 177.481L78.3832 175.735C78.2624 175.666 78.0521 175.677 77.9102 175.762ZM102.733 161.291L99.3374 163.27C99.1955 163.355 99.1745 163.477 99.2902 163.546L102.286 165.292C102.407 165.361 102.617 165.35 102.759 165.265L106.154 163.286C106.296 163.201 106.317 163.079 106.201 163.01L103.206 161.264C103.085 161.195 102.874 161.206 102.733 161.291ZM92.8047 167.08L89.4096 169.059C89.2677 169.144 89.2414 169.266 89.3623 169.335L92.358 171.081C92.4736 171.15 92.6891 171.14 92.831 171.055L96.2261 169.075C96.368 168.99 96.3943 168.868 96.2734 168.799L93.2777 167.054C93.1621 166.985 92.9466 166.995 92.8047 167.08ZM87.8381 169.972L84.443 171.952C84.3011 172.036 84.2748 172.158 84.3957 172.227L87.3914 173.973C87.507 174.042 87.7225 174.032 87.8644 173.947L91.2595 171.967C91.4014 171.883 91.4225 171.76 91.3068 171.691L88.3111 169.946C88.1955 169.877 87.98 169.887 87.8381 169.972ZM82.8715 172.864L79.4764 174.844C79.3345 174.928 79.3135 175.051 79.4291 175.12L82.4248 176.865C82.5457 176.934 82.7559 176.924 82.8978 176.839L86.293 174.859C86.4349 174.775 86.4559 174.653 86.3403 174.584L83.3446 172.838C83.2237 172.769 83.0134 172.779 82.8715 172.864ZM105.387 174.716L108.782 172.737C108.924 172.652 108.95 172.53 108.829 172.461L105.833 170.715C105.713 170.646 105.502 170.657 105.36 170.742L101.965 172.721C101.823 172.806 101.802 172.928 101.918 172.997L104.914 174.743C105.035 174.812 105.245 174.801 105.387 174.716ZM151.846 132.652L148.451 134.631C148.309 134.716 148.288 134.838 148.404 134.907L151.4 136.653C151.515 136.722 151.731 136.711 151.873 136.626L155.268 134.647C155.41 134.562 155.431 134.44 155.315 134.371L152.319 132.625C152.204 132.556 151.988 132.567 151.846 132.652ZM145.839 136.154L142.444 138.133C142.302 138.218 142.281 138.34 142.397 138.409L145.393 140.155C145.508 140.224 145.724 140.213 145.866 140.128L149.261 138.149C149.403 138.064 149.424 137.942 149.308 137.873L146.312 136.127C146.197 136.058 145.981 136.069 145.839 136.154ZM156.813 129.76L153.418 131.739C153.276 131.824 153.255 131.946 153.371 132.015L156.366 133.761C156.482 133.83 156.697 133.819 156.839 133.734L160.234 131.755C160.376 131.67 160.403 131.548 160.282 131.479L157.286 129.733C157.165 129.664 156.955 129.675 156.808 129.76H156.813ZM129.153 155.369L132.548 153.389C132.69 153.304 132.711 153.182 132.595 153.113L129.599 151.368C129.484 151.299 129.268 151.309 129.126 151.394L125.731 153.373C125.589 153.458 125.568 153.58 125.684 153.649L128.68 155.395C128.801 155.464 129.011 155.454 129.153 155.369ZM162.253 126.836C162.137 126.767 161.922 126.777 161.78 126.862L158.385 128.841C158.243 128.926 158.216 129.048 158.337 129.117L161.333 130.863C161.449 130.932 161.664 130.922 161.806 130.837L165.201 128.857C165.343 128.773 165.369 128.65 165.248 128.581L162.253 126.836ZM110.353 171.819L113.748 169.84C113.89 169.755 113.911 169.633 113.796 169.564L110.8 167.818C110.679 167.749 110.469 167.759 110.327 167.844L106.932 169.824C106.79 169.909 106.769 170.031 106.885 170.1L109.88 171.845C109.996 171.914 110.211 171.904 110.353 171.819ZM171.229 136.329L174.624 134.35C174.766 134.265 174.787 134.143 174.672 134.074L171.676 132.328C171.56 132.259 171.345 132.269 171.203 132.354L167.808 134.334C167.666 134.419 167.64 134.541 167.761 134.61L170.756 136.355C170.872 136.424 171.087 136.414 171.229 136.329ZM161.554 136.478L164.949 134.498C165.091 134.413 165.112 134.291 164.996 134.222L162 132.476C161.885 132.407 161.669 132.418 161.527 132.503L158.132 134.482C157.99 134.567 157.964 134.689 158.085 134.758L161.081 136.504C161.196 136.573 161.412 136.562 161.554 136.478ZM166.967 129.579C166.851 129.51 166.636 129.521 166.494 129.606L163.099 131.585C162.957 131.67 162.936 131.792 163.052 131.861L166.047 133.607C166.163 133.676 166.378 133.665 166.52 133.58L169.915 131.601C170.057 131.516 170.084 131.394 169.963 131.325L166.967 129.579ZM168.013 128.969L175.723 133.463C175.844 133.532 176.054 133.522 176.196 133.437L179.591 131.458C179.733 131.373 179.754 131.251 179.638 131.182L171.928 126.687C171.807 126.618 171.597 126.629 171.455 126.714L168.06 128.693C167.918 128.778 167.897 128.9 168.013 128.969ZM156.566 135.395L153.171 137.374C153.029 137.459 153.003 137.581 153.124 137.65L156.119 139.396C156.24 139.465 156.45 139.455 156.592 139.37L159.987 137.39C160.129 137.305 160.15 137.183 160.035 137.114L157.039 135.368C156.918 135.3 156.708 135.31 156.566 135.395ZM119.204 157.173L115.809 159.152C115.667 159.237 115.646 159.359 115.761 159.428L118.757 161.174C118.873 161.243 119.088 161.232 119.23 161.147L122.625 159.168C122.767 159.083 122.788 158.961 122.672 158.892L119.677 157.146C119.556 157.077 119.346 157.088 119.204 157.173ZM165.795 139.248C165.911 139.317 166.126 139.306 166.268 139.221L169.663 137.242C169.805 137.157 169.826 137.035 169.71 136.966L166.715 135.22C166.599 135.151 166.384 135.162 166.242 135.246L162.847 137.226C162.705 137.311 162.678 137.433 162.799 137.502L165.795 139.248ZM124.17 154.276L120.775 156.255C120.633 156.34 120.612 156.462 120.728 156.531L123.724 158.277C123.839 158.346 124.055 158.335 124.197 158.25L127.592 156.271C127.734 156.186 127.755 156.064 127.639 155.995L124.643 154.249C124.528 154.18 124.312 154.191 124.17 154.276ZM85.0631 186.311C85.184 186.38 85.3943 186.369 85.5362 186.284L88.9313 184.305C89.0732 184.22 89.0942 184.098 88.9786 184.029L85.9829 182.283C85.8673 182.214 85.6518 182.225 85.5099 182.31L82.1147 184.289C81.9728 184.374 81.9518 184.496 82.0674 184.565L85.0631 186.311ZM79.4922 180.32L76.097 182.299C75.9551 182.384 75.9341 182.506 76.0497 182.575L79.0454 184.321C79.1663 184.39 79.3766 184.379 79.5185 184.294L82.9136 182.315C83.0555 182.23 83.0765 182.108 82.9609 182.039L79.9652 180.293C79.8496 180.224 79.6341 180.235 79.4922 180.32ZM90.5027 183.387L93.8979 181.408C94.0398 181.323 94.0661 181.201 93.9452 181.132L90.9495 179.386C90.8338 179.317 90.6184 179.328 90.4764 179.412L87.0813 181.392C86.9394 181.477 86.9184 181.599 87.034 181.668L90.0297 183.414C90.1453 183.483 90.3608 183.472 90.5027 183.387ZM95.4693 180.495L98.8644 178.516C99.0063 178.431 99.0326 178.309 98.9117 178.24L95.916 176.494C95.8004 176.425 95.5849 176.436 95.443 176.52L92.0479 178.5C91.906 178.585 91.8797 178.707 92.0006 178.776L94.9963 180.522C95.1119 180.591 95.3274 180.58 95.4693 180.495ZM100.436 177.603L103.831 175.624C103.973 175.539 103.994 175.417 103.878 175.348L100.883 173.602C100.767 173.533 100.552 173.543 100.41 173.628L97.0145 175.608C96.8726 175.693 96.8515 175.815 96.9672 175.884L99.9629 177.629C100.084 177.698 100.294 177.688 100.436 177.603ZM84.4588 177.428L81.0636 179.407C80.9217 179.492 80.9007 179.614 81.0163 179.683L84.012 181.429C84.1276 181.498 84.3431 181.487 84.485 181.402L87.8802 179.423C88.0221 179.338 88.0431 179.216 87.9275 179.147L84.9318 177.401C84.8109 177.332 84.6007 177.343 84.4588 177.428ZM89.4253 174.536L86.0302 176.515C85.8883 176.6 85.862 176.722 85.9829 176.791L88.9786 178.537C89.0995 178.606 89.3097 178.595 89.4516 178.51L92.8467 176.531C92.9886 176.446 93.0097 176.324 92.894 176.255L89.8983 174.509C89.7827 174.44 89.5672 174.451 89.4253 174.536ZM109.281 162.962L105.886 164.942C105.744 165.027 105.723 165.149 105.839 165.218L108.834 166.963C108.955 167.032 109.165 167.022 109.307 166.937L112.703 164.958C112.844 164.873 112.865 164.751 112.75 164.682L109.754 162.936C109.638 162.867 109.423 162.877 109.281 162.962ZM104.315 165.854L100.919 167.834C100.777 167.919 100.751 168.041 100.872 168.11L103.868 169.855C103.983 169.924 104.199 169.914 104.341 169.829L107.736 167.85C107.878 167.765 107.904 167.643 107.783 167.574L104.788 165.828C104.672 165.759 104.456 165.769 104.315 165.854ZM114.242 160.065L110.847 162.044C110.705 162.129 110.684 162.251 110.8 162.32L113.796 164.066C113.911 164.135 114.127 164.124 114.269 164.04L117.664 162.06C117.806 161.975 117.827 161.853 117.711 161.784L114.715 160.038C114.6 159.969 114.384 159.98 114.242 160.065ZM94.3866 171.638L90.9915 173.618C90.8496 173.703 90.8233 173.825 90.9442 173.894L93.9399 175.64C94.0555 175.709 94.271 175.698 94.4129 175.613L97.8081 173.634C97.95 173.549 97.971 173.427 97.8554 173.358L94.8596 171.612C94.744 171.543 94.5285 171.554 94.3866 171.638ZM99.348 168.746L95.9528 170.726C95.8109 170.811 95.7899 170.933 95.9055 171.002L98.9012 172.748C99.0169 172.816 99.2323 172.806 99.3742 172.721L102.769 170.742C102.911 170.657 102.938 170.535 102.817 170.466L99.821 168.72C99.7053 168.651 99.4899 168.661 99.348 168.746ZM92.8625 187.505L96.2576 185.526C96.3995 185.441 96.4206 185.319 96.3049 185.25L93.3092 183.504C93.1936 183.435 92.9781 183.445 92.8362 183.53L89.4411 185.51C89.2992 185.595 89.2782 185.717 89.3938 185.786L92.3895 187.531C92.5104 187.6 92.7206 187.59 92.8625 187.505ZM66.495 186.146L63.4993 184.401C63.3837 184.332 63.1682 184.342 63.0263 184.427L59.6311 186.406C59.4892 186.491 59.4682 186.613 59.5838 186.682L62.5795 188.428C62.7004 188.497 62.9106 188.487 63.0526 188.402L66.4477 186.422C66.5896 186.337 66.6106 186.215 66.495 186.146ZM73.0383 187.829L70.0425 186.083C69.9269 186.014 69.7114 186.024 69.5695 186.109L64.3454 189.155C64.2035 189.24 64.1825 189.362 64.2981 189.431L67.2938 191.177C67.4147 191.246 67.625 191.235 67.7669 191.15L72.991 188.105C73.1329 188.02 73.1539 187.898 73.0383 187.829ZM62.0855 182.66L59.0898 180.914C58.9742 180.845 58.7587 180.856 58.6168 180.941L54.4386 183.376C54.2967 183.461 54.2704 183.583 54.3913 183.652L57.387 185.398C57.5026 185.467 57.7181 185.457 57.86 185.372L62.0382 182.936C62.1801 182.851 62.2011 182.729 62.0855 182.66ZM65.2915 180.792C65.4071 180.861 65.6226 180.851 65.7645 180.766L69.1596 178.786C69.3015 178.701 69.3278 178.579 69.2069 178.51L66.2112 176.765C66.0956 176.696 65.8801 176.706 65.7382 176.791L62.343 178.77C62.1959 178.855 62.1749 178.977 62.2957 179.046L65.2915 180.792ZM79.056 189.813L76.0602 188.067C75.9394 187.998 75.7291 188.009 75.5872 188.094L69.0545 191.899C68.9126 191.984 68.8916 192.106 69.0072 192.175L72.0029 193.92C72.1238 193.989 72.334 193.979 72.4759 193.894L79.0087 190.084C79.1506 189.999 79.1768 189.877 79.056 189.808V189.813ZM81.4157 193.931L78.42 192.185C78.3044 192.116 78.0889 192.127 77.947 192.212L73.7688 194.647C73.6269 194.732 73.6006 194.854 73.7215 194.923L76.7172 196.669C76.8328 196.738 77.0483 196.728 77.1902 196.643L81.3684 194.207C81.5103 194.122 81.5314 194 81.4157 193.931ZM102.202 159.28C102.317 159.349 102.533 159.338 102.675 159.253L106.07 157.274C106.212 157.189 106.238 157.067 106.117 156.998L103.122 155.252C103.001 155.183 102.79 155.194 102.643 155.278L99.2481 157.258C99.1062 157.343 99.0799 157.465 99.2008 157.534L102.197 159.28H102.202ZM92.2739 165.069C92.3948 165.138 92.605 165.127 92.7469 165.042L96.142 163.063C96.2839 162.978 96.305 162.856 96.1893 162.787L93.1936 161.041C93.078 160.972 92.8625 160.983 92.7206 161.068L89.3255 163.047C89.1836 163.132 89.1625 163.254 89.2782 163.323L92.2739 165.069ZM70.258 177.905C70.3789 177.974 70.5891 177.964 70.731 177.879L74.1262 175.9C74.2681 175.815 74.2943 175.693 74.1735 175.624L71.1778 173.878C71.0621 173.809 70.8467 173.819 70.7048 173.904L67.3096 175.884C67.1677 175.969 67.1467 176.091 67.2623 176.16L70.258 177.905ZM97.2405 162.177C97.3561 162.246 97.5716 162.235 97.7135 162.15L101.109 160.171C101.25 160.086 101.272 159.964 101.156 159.895L98.1602 158.149C98.0393 158.08 97.8291 158.091 97.6872 158.176L94.292 160.155C94.1501 160.24 94.1239 160.362 94.2447 160.431L97.2405 162.177ZM87.3126 167.966C87.4334 168.035 87.6437 168.025 87.7856 167.94L91.1807 165.96C91.3226 165.876 91.3436 165.754 91.228 165.685L88.2323 163.939C88.1114 163.87 87.9012 163.88 87.7593 163.965L84.3642 165.945C84.2223 166.029 84.2012 166.152 84.3168 166.22L87.3126 167.966ZM84.1802 194.329C84.0593 194.26 83.8491 194.271 83.7072 194.356L78.4831 197.402C78.3412 197.486 78.3202 197.608 78.4358 197.677L81.4315 199.423C81.5524 199.492 81.7626 199.482 81.9045 199.397L87.1286 196.351C87.2705 196.266 87.2915 196.144 87.1759 196.075L84.1802 194.329ZM80.1859 172.121C80.3068 172.19 80.517 172.18 80.6589 172.095L84.0541 170.115C84.196 170.031 84.217 169.909 84.1014 169.84L81.1057 168.094C80.9848 168.025 80.7746 168.035 80.6326 168.12L77.2375 170.1C77.0956 170.184 77.0746 170.307 77.1902 170.375L80.1859 172.121ZM75.2193 175.013C75.3402 175.082 75.5505 175.072 75.6924 174.987L79.0875 173.008C79.2294 172.923 79.2504 172.801 79.1348 172.732L76.1391 170.986C76.0182 170.917 75.808 170.927 75.6661 171.012L72.2709 172.992C72.129 173.077 72.108 173.199 72.2236 173.268L75.2193 175.013ZM176.149 140.717C176.028 140.648 175.817 140.659 175.676 140.744L167.314 145.615C167.172 145.7 167.146 145.822 167.267 145.891L170.262 147.637C170.378 147.706 170.593 147.696 170.735 147.611L179.097 142.739C179.239 142.654 179.265 142.532 179.144 142.463L176.149 140.717ZM165.175 147.117C165.059 147.048 164.844 147.059 164.702 147.144L161.307 149.123C161.165 149.208 161.144 149.33 161.259 149.399L164.255 151.145C164.376 151.214 164.586 151.203 164.728 151.118L168.123 149.139C168.265 149.054 168.286 148.932 168.17 148.863L165.175 147.117ZM97.8291 184.623L101.224 182.644C101.366 182.559 101.387 182.437 101.272 182.368L98.2758 180.622C98.1549 180.553 97.9447 180.564 97.8028 180.649L94.4077 182.628C94.2658 182.713 94.2447 182.835 94.3604 182.904L97.3561 184.65C97.477 184.719 97.6872 184.708 97.8291 184.623ZM155.247 152.906C155.126 152.837 154.916 152.848 154.774 152.933L151.379 154.912C151.237 154.997 151.216 155.119 151.331 155.188L154.327 156.934C154.448 157.003 154.658 156.992 154.8 156.908L158.195 154.928C158.337 154.843 158.358 154.721 158.243 154.652L155.247 152.906ZM181.115 137.825C180.994 137.756 180.784 137.767 180.642 137.852L177.247 139.831C177.105 139.916 177.084 140.038 177.2 140.107L180.195 141.853C180.316 141.922 180.526 141.911 180.668 141.827L184.064 139.847C184.205 139.762 184.226 139.64 184.111 139.571L181.115 137.825ZM189.077 136.679L181.367 132.185C181.247 132.116 181.036 132.126 180.894 132.211L177.499 134.19C177.357 134.275 177.331 134.397 177.452 134.466L185.162 138.961C185.283 139.03 185.493 139.019 185.635 138.934L189.03 136.955C189.172 136.87 189.193 136.748 189.077 136.679ZM136.7 163.721C136.584 163.652 136.369 163.663 136.227 163.748L132.049 166.183C131.907 166.268 131.886 166.39 132.001 166.459L134.997 168.205C135.118 168.274 135.328 168.264 135.47 168.179L139.648 165.743C139.79 165.658 139.816 165.536 139.695 165.467L136.7 163.721ZM149.24 156.409C149.119 156.34 148.909 156.35 148.767 156.435L143.543 159.481C143.401 159.566 143.38 159.688 143.495 159.757L146.491 161.503C146.607 161.572 146.822 161.561 146.964 161.476L152.188 158.431C152.33 158.346 152.351 158.224 152.235 158.155L149.24 156.409ZM125.2 170.423C125.085 170.354 124.869 170.365 124.727 170.45L96.7727 186.746C96.6308 186.831 96.6045 186.953 96.7254 187.022L99.7211 188.768C99.8367 188.837 100.052 188.826 100.194 188.741L128.149 172.445C128.291 172.36 128.317 172.238 128.196 172.169L125.2 170.423ZM95.6743 187.632C95.5586 187.563 95.3432 187.574 95.2013 187.659L91.023 190.094C90.8811 190.179 90.8601 190.301 90.9757 190.37L93.9715 192.116C94.0923 192.185 94.3026 192.175 94.4445 192.09L98.6227 189.654C98.7646 189.569 98.7856 189.447 98.67 189.378L95.6743 187.632ZM130.945 167.07C130.829 167.001 130.614 167.011 130.472 167.096L126.294 169.532C126.152 169.617 126.125 169.739 126.246 169.808L129.242 171.554C129.358 171.623 129.573 171.612 129.715 171.527L133.893 169.091C134.035 169.006 134.056 168.884 133.941 168.815L130.945 167.07ZM89.9246 190.981C89.809 190.912 89.5935 190.922 89.4516 191.007L85.2734 193.443C85.1315 193.528 85.1105 193.65 85.2261 193.719L88.2218 195.465C88.3427 195.534 88.5529 195.523 88.6948 195.438L92.873 193.002C93.0149 192.918 93.0412 192.795 92.9203 192.726L89.9246 190.981ZM142.439 160.367C142.323 160.298 142.108 160.309 141.966 160.394L137.788 162.83C137.646 162.915 137.625 163.037 137.74 163.106L140.736 164.851C140.852 164.92 141.067 164.91 141.209 164.825L145.387 162.389C145.529 162.304 145.55 162.182 145.435 162.113L142.439 160.367ZM160.208 150.009C160.087 149.94 159.877 149.951 159.735 150.036L156.34 152.015C156.198 152.1 156.177 152.222 156.293 152.291L159.288 154.037C159.404 154.106 159.62 154.095 159.761 154.01L163.157 152.031C163.299 151.946 163.32 151.824 163.204 151.755L160.208 150.009ZM170.988 141.975L174.383 139.996C174.525 139.911 174.551 139.789 174.43 139.72L171.434 137.974C171.319 137.905 171.103 137.916 170.961 138.001L167.566 139.98C167.424 140.065 167.403 140.187 167.519 140.256L170.514 142.002C170.63 142.071 170.846 142.06 170.988 141.975ZM150.59 142.877L153.986 140.898C154.127 140.813 154.148 140.691 154.033 140.622L151.037 138.876C150.921 138.807 150.706 138.818 150.564 138.903L147.169 140.882C147.022 140.967 147.006 141.089 147.122 141.158L150.117 142.904C150.238 142.973 150.448 142.962 150.59 142.877ZM137.546 161.471L147.474 155.682C147.616 155.597 147.637 155.475 147.521 155.406L144.525 153.66C144.41 153.591 144.194 153.602 144.052 153.687L134.124 159.476C133.983 159.561 133.962 159.683 134.077 159.752L137.073 161.498C137.194 161.567 137.404 161.556 137.546 161.471ZM165.548 144.899C165.664 144.968 165.879 144.957 166.021 144.872L169.416 142.893C169.558 142.808 169.584 142.686 169.463 142.617L166.468 140.871C166.352 140.802 166.137 140.813 165.995 140.898L162.6 142.877C162.458 142.962 162.437 143.084 162.552 143.153L165.548 144.899ZM161.312 142.124L164.707 140.144C164.849 140.059 164.87 139.937 164.754 139.868L161.759 138.123C161.643 138.054 161.428 138.064 161.286 138.149L157.89 140.128C157.749 140.213 157.722 140.335 157.843 140.404L160.839 142.15C160.954 142.219 161.17 142.209 161.312 142.124ZM132.579 164.369L135.974 162.389C136.116 162.304 136.137 162.182 136.022 162.113L133.026 160.367C132.91 160.298 132.695 160.309 132.553 160.394L129.158 162.373C129.016 162.458 128.995 162.58 129.111 162.649L132.106 164.395C132.227 164.464 132.437 164.453 132.579 164.369ZM154.574 151.299C154.695 151.368 154.905 151.357 155.047 151.272L158.442 149.293C158.584 149.208 158.605 149.086 158.49 149.017L155.494 147.271C155.373 147.202 155.163 147.213 155.021 147.298L151.626 149.277C151.484 149.362 151.463 149.484 151.578 149.553L154.574 151.299ZM107.757 178.839L111.152 176.86C111.294 176.775 111.315 176.653 111.199 176.584L108.204 174.838C108.088 174.769 107.873 174.78 107.731 174.865L104.336 176.844C104.194 176.929 104.173 177.051 104.288 177.12L107.284 178.866C107.4 178.935 107.615 178.924 107.757 178.839ZM112.724 175.947L116.119 173.968C116.261 173.883 116.282 173.761 116.166 173.692L113.17 171.946C113.055 171.877 112.839 171.888 112.697 171.973L109.302 173.952C109.16 174.037 109.139 174.159 109.255 174.228L112.251 175.974C112.371 176.043 112.582 176.032 112.724 175.947ZM102.796 181.737L106.191 179.757C106.333 179.672 106.354 179.55 106.238 179.481L103.242 177.736C103.122 177.667 102.911 177.677 102.769 177.762L99.3742 179.741C99.2323 179.826 99.2113 179.948 99.3269 180.017L102.323 181.763C102.444 181.832 102.654 181.822 102.796 181.737ZM122.651 170.163L126.047 168.184C126.188 168.099 126.215 167.977 126.094 167.908L123.098 166.162C122.983 166.093 122.767 166.104 122.625 166.189L119.23 168.168C119.088 168.253 119.067 168.375 119.183 168.444L122.178 170.19C122.299 170.259 122.51 170.248 122.651 170.163ZM117.685 173.055L121.08 171.076C121.222 170.991 121.248 170.869 121.127 170.8L118.132 169.054C118.016 168.985 117.8 168.996 117.659 169.081L114.263 171.06C114.122 171.145 114.101 171.267 114.216 171.336L117.212 173.082C117.327 173.151 117.543 173.14 117.685 173.055ZM127.613 167.266L131.008 165.287C131.15 165.202 131.171 165.08 131.055 165.011L128.059 163.265C127.944 163.196 127.728 163.206 127.586 163.291L124.191 165.271C124.049 165.356 124.028 165.478 124.144 165.547L127.14 167.292C127.261 167.361 127.471 167.351 127.613 167.266ZM155.042 127.207C155.163 127.276 155.373 127.265 155.515 127.181L158.91 125.201C159.052 125.116 159.073 124.994 158.957 124.925L158.159 124.458C158.043 124.389 157.827 124.4 157.685 124.485L154.29 126.464C154.148 126.549 154.127 126.671 154.243 126.74L155.042 127.207ZM130.277 142.925C130.393 142.994 130.608 142.983 130.75 142.898L134.146 140.919C134.287 140.834 134.308 140.712 134.193 140.643L131.197 138.897C131.081 138.828 130.866 138.839 130.724 138.924L127.329 140.903C127.187 140.988 127.161 141.11 127.282 141.179L130.277 142.925ZM140.205 137.136C140.321 137.205 140.536 137.194 140.678 137.109L144.073 135.13C144.221 135.045 144.236 134.923 144.121 134.854L141.125 133.108C141.009 133.039 140.794 133.05 140.652 133.134L137.257 135.114C137.115 135.199 137.094 135.321 137.21 135.39L140.205 137.136ZM124.212 146.459C124.333 146.528 124.543 146.517 124.685 146.433L128.081 144.453C128.222 144.368 128.243 144.246 128.128 144.177L125.132 142.431C125.016 142.362 124.801 142.373 124.659 142.458L121.264 144.437C121.122 144.522 121.101 144.644 121.217 144.713L124.212 146.459ZM135.239 140.033C135.354 140.102 135.57 140.091 135.712 140.006L139.107 138.027C139.249 137.942 139.27 137.82 139.154 137.751L136.158 136.005C136.043 135.936 135.827 135.947 135.685 136.032L132.29 138.011C132.148 138.096 132.122 138.218 132.243 138.287L135.239 140.033ZM114.284 152.248C114.405 152.317 114.616 152.307 114.757 152.222L118.153 150.243C118.295 150.158 118.316 150.036 118.2 149.967L115.204 148.221C115.083 148.152 114.873 148.162 114.731 148.247L111.336 150.227C111.194 150.312 111.173 150.434 111.289 150.503L114.284 152.248ZM119.251 149.356C119.372 149.425 119.582 149.415 119.724 149.33L123.119 147.351C123.261 147.266 123.282 147.144 123.166 147.075L120.171 145.329C120.05 145.26 119.84 145.27 119.698 145.355L116.303 147.335C116.161 147.42 116.14 147.542 116.255 147.611L119.251 149.356ZM145.114 132.996C145.23 133.065 145.445 133.055 145.587 132.97L148.982 130.991C149.124 130.906 149.145 130.784 149.029 130.715L148.231 130.248C148.115 130.179 147.9 130.189 147.758 130.274L144.362 132.254C144.221 132.338 144.194 132.461 144.315 132.53L145.114 132.996ZM160.008 124.315C160.129 124.384 160.34 124.373 160.481 124.289L163.877 122.309C164.019 122.224 164.04 122.102 163.924 122.033L163.125 121.566C163.004 121.497 162.794 121.508 162.652 121.593L159.257 123.572C159.115 123.657 159.094 123.779 159.21 123.848L160.008 124.315ZM166.305 127.982C166.426 128.051 166.636 128.04 166.778 127.955L170.173 125.976C170.315 125.891 170.336 125.769 170.22 125.7L167.224 123.954C167.109 123.885 166.893 123.896 166.751 123.981L163.356 125.96C163.214 126.045 163.193 126.167 163.309 126.236L166.305 127.982ZM175.954 139.088L179.349 137.109C179.491 137.024 179.517 136.902 179.397 136.833L176.401 135.087C176.285 135.018 176.07 135.029 175.928 135.114L172.533 137.093C172.391 137.178 172.37 137.3 172.485 137.369L175.481 139.115C175.597 139.184 175.812 139.173 175.954 139.088ZM150.086 130.099C150.201 130.168 150.417 130.158 150.559 130.073L153.954 128.093C154.096 128.008 154.117 127.886 154.001 127.817L153.202 127.35C153.082 127.281 152.871 127.292 152.729 127.377L149.334 129.356C149.192 129.441 149.171 129.563 149.287 129.632L150.086 130.099ZM109.328 155.141C109.444 155.21 109.66 155.199 109.801 155.114L113.197 153.135C113.338 153.05 113.365 152.928 113.244 152.859L110.248 151.113C110.133 151.044 109.917 151.055 109.775 151.139L106.38 153.119C106.238 153.204 106.217 153.326 106.333 153.395L109.328 155.141Z" fill="#455A64"/>
<path d="M124.522 181.026L125.221 181.435L143.721 192.212L176.616 173.04L177.3 172.642L158.106 161.456L124.522 181.026Z" fill="#263238"/>
<path d="M176.312 173.215L158.106 162.612L125.526 181.61L143.721 192.212L176.312 173.215Z" fill="#37474F"/>
<path d="M197.092 25.5295C197.092 24.1339 196.609 23.1469 195.826 22.6799C195.032 22.2077 190.449 19.5385 189.65 19.0821C188.862 18.6258 187.774 18.6947 186.571 19.3952L100.767 69.4143V98.0854L106.916 101.667L192.72 51.6481C195.132 50.2419 197.087 46.8192 197.087 44.0068V25.5242L197.092 25.5295Z" fill="#06B6D4"/>
<path opacity="0.15" d="M197.092 25.5295C197.092 24.1339 196.609 23.1469 195.826 22.6799C195.032 22.2077 190.449 19.5385 189.65 19.0821C188.862 18.6258 187.774 18.6947 186.571 19.3952L100.767 69.4143V98.0854L106.916 101.667L192.72 51.6481C195.132 50.2419 197.087 46.8192 197.087 44.0068V25.5242L197.092 25.5295Z" fill="black"/>
<path d="M192.719 22.9825C195.132 21.5763 197.087 22.7172 197.087 25.5296V44.0122C197.087 46.8246 195.132 50.2473 192.719 51.6535L106.916 101.673V73.0016L192.719 22.9825Z" fill="#06B6D4"/>
<path d="M191.842 49.2922C193.461 48.3476 194.785 46.0287 194.785 44.1396V27.0633C194.785 25.7154 193.839 25.1688 192.688 25.8374L108.65 74.8642V97.8201L191.842 49.2869V49.2922Z" fill="#FAFAFA"/>
<path d="M123.293 83.662C123.293 83.7946 123.261 83.9273 123.198 84.0547C123.135 84.1873 123.061 84.2775 122.977 84.3253L121.527 85.169C121.443 85.2168 121.369 85.2115 121.306 85.1531C121.243 85.0947 121.217 84.9992 121.217 84.8666V80.3348C121.217 79.8201 121.138 79.4539 120.975 79.2417C120.812 79.0241 120.56 79.0188 120.213 79.2204C119.866 79.4221 119.614 79.7246 119.456 80.1279C119.298 80.5311 119.219 80.9875 119.219 81.5022V86.034C119.219 86.1667 119.188 86.2993 119.125 86.4267C119.062 86.5593 118.993 86.6495 118.904 86.6973L117.454 87.541C117.369 87.5888 117.296 87.5835 117.233 87.5251C117.17 87.4667 117.138 87.3712 117.138 87.2386V75.49C117.138 75.3573 117.17 75.2246 117.233 75.0973C117.296 74.9646 117.364 74.8744 117.454 74.8267L118.904 73.9829C118.988 73.9352 119.062 73.9405 119.125 73.9988C119.188 74.0572 119.219 74.1527 119.219 74.2854V78.1008C119.351 77.7718 119.556 77.4162 119.829 77.0182C120.108 76.6256 120.423 76.3231 120.786 76.1108C121.153 75.8986 121.49 75.7818 121.8 75.7606C122.105 75.7447 122.368 75.8349 122.588 76.0418C122.809 76.2488 122.977 76.5725 123.098 77.0129C123.219 77.4534 123.282 78.0265 123.282 78.7322V83.6567L123.293 83.662Z" fill="#455A64"/>
<path d="M127.282 78.1857C127.282 78.4616 127.319 78.6527 127.397 78.7535C127.476 78.8596 127.602 78.8596 127.776 78.7535L128.696 78.2175C128.78 78.1698 128.853 78.1751 128.916 78.2335C128.979 78.2918 129.006 78.3874 129.006 78.52V80.3295C129.006 80.4622 128.974 80.5949 128.916 80.7222C128.853 80.8549 128.78 80.9451 128.696 80.9928L127.602 81.6296C127.24 81.8419 126.914 81.9533 126.614 81.9639C126.315 81.9746 126.068 81.8896 125.858 81.7039C125.653 81.5182 125.49 81.2423 125.374 80.8761C125.258 80.51 125.201 80.0483 125.201 79.5017V76.4929L124.349 76.9917C124.265 77.0395 124.191 77.0342 124.128 76.9758C124.065 76.9174 124.039 76.8219 124.039 76.6893V74.8798C124.039 74.7471 124.071 74.6144 124.128 74.4871C124.191 74.3544 124.265 74.2642 124.349 74.2164L125.201 73.7176V70.799C125.201 70.6664 125.232 70.5337 125.29 70.4064C125.353 70.2737 125.427 70.1835 125.511 70.1357L126.961 69.292C127.045 69.2442 127.119 69.2496 127.182 69.3079C127.245 69.3663 127.271 69.4618 127.271 69.5945V72.513L128.575 71.7542C128.659 71.7065 128.732 71.7118 128.795 71.7701C128.858 71.8285 128.885 71.924 128.885 72.0567V73.8662C128.885 73.9989 128.853 74.1315 128.795 74.2589C128.732 74.3916 128.659 74.4818 128.575 74.5295L127.271 75.2884V78.191L127.282 78.1857Z" fill="#455A64"/>
<path d="M132.742 75.002C132.742 75.278 132.779 75.469 132.858 75.5698C132.937 75.676 133.063 75.676 133.236 75.5698L134.156 75.0339C134.24 74.9861 134.314 74.9914 134.377 75.0498C134.44 75.1082 134.466 75.2037 134.466 75.3364V77.1459C134.466 77.2785 134.435 77.4112 134.377 77.5386C134.314 77.6712 134.24 77.7614 134.156 77.8092L133.063 78.446C132.7 78.6582 132.374 78.7697 132.075 78.7803C131.78 78.7909 131.528 78.706 131.318 78.5203C131.113 78.3345 130.95 78.0586 130.834 77.6924C130.719 77.321 130.661 76.8646 130.661 76.3128V73.304L129.81 73.8028C129.726 73.8505 129.652 73.8452 129.589 73.7869C129.526 73.7285 129.5 73.633 129.5 73.5003V71.6908C129.5 71.5581 129.531 71.4308 129.589 71.2981C129.652 71.1654 129.726 71.0752 129.81 71.0275L130.661 70.5287V67.6101C130.661 67.4774 130.693 67.3501 130.75 67.2174C130.813 67.0847 130.887 66.9945 130.971 66.9468L132.422 66.103C132.506 66.0553 132.579 66.0606 132.642 66.119C132.705 66.1773 132.732 66.2728 132.732 66.4055V69.3241L134.035 68.5653C134.119 68.5175 134.193 68.5228 134.256 68.5812C134.319 68.6395 134.345 68.7351 134.345 68.8677V70.6772C134.345 70.8099 134.314 70.9426 134.256 71.0699C134.193 71.2026 134.119 71.2928 134.035 71.3406L132.732 72.0994V75.002H132.742Z" fill="#455A64"/>
<path d="M139.07 75.1291C138.849 75.2618 138.649 75.3361 138.481 75.3626C138.313 75.3891 138.166 75.3838 138.045 75.3467C137.924 75.3095 137.819 75.2565 137.735 75.1769C137.651 75.1026 137.583 75.023 137.53 74.9487V78.7641C137.53 78.8967 137.498 79.0294 137.435 79.1568C137.372 79.2894 137.299 79.3796 137.215 79.4274L135.764 80.2764C135.68 80.3242 135.606 80.3189 135.543 80.2605C135.48 80.2021 135.449 80.1066 135.449 79.974V68.2254C135.449 68.0927 135.48 67.9653 135.543 67.8327C135.606 67.7 135.68 67.6098 135.764 67.562L137.157 66.7502C137.241 66.7024 137.314 66.7077 137.378 66.7661C137.441 66.8244 137.467 66.92 137.467 67.0526V67.4665C137.535 67.3073 137.609 67.1375 137.693 66.9624C137.772 66.782 137.872 66.6069 137.992 66.4371C138.113 66.2673 138.255 66.0975 138.429 65.933C138.602 65.7685 138.818 65.6093 139.07 65.4607C139.417 65.259 139.743 65.1476 140.047 65.1317C140.352 65.1157 140.626 65.206 140.852 65.4129C141.083 65.6199 141.267 65.9383 141.409 66.3681C141.551 66.7979 141.629 67.3604 141.645 68.0556C141.65 68.2307 141.656 68.4695 141.656 68.7719C141.656 69.0744 141.656 69.3185 141.645 69.5042C141.629 70.2153 141.551 70.8733 141.409 71.4676C141.267 72.062 141.083 72.5979 140.852 73.0755C140.62 73.5478 140.352 73.9617 140.047 74.3066C139.737 74.6515 139.411 74.9275 139.07 75.1291ZM139.59 70.4912C139.611 70.1463 139.611 69.8067 139.59 69.4883C139.569 69.085 139.48 68.7719 139.327 68.5491C139.175 68.3262 138.917 68.3209 138.555 68.5331C138.387 68.634 138.239 68.7613 138.119 68.9152C137.998 69.0691 137.893 69.2389 137.814 69.4246C137.735 69.6104 137.672 69.7961 137.625 69.9924C137.577 70.1888 137.546 70.3745 137.535 70.5655C137.519 70.7513 137.514 70.9688 137.514 71.2076C137.514 71.4464 137.519 71.6481 137.535 71.8232C137.551 71.993 137.583 72.1469 137.625 72.2901C137.672 72.4281 137.735 72.5449 137.814 72.6351C137.893 72.7253 137.998 72.7783 138.119 72.789C138.239 72.7996 138.387 72.7571 138.555 72.6616C138.917 72.4493 139.175 72.1469 139.327 71.7489C139.48 71.3509 139.569 70.9317 139.59 70.5019V70.4912Z" fill="#455A64"/>
<path d="M144.851 64.8291C144.851 64.9618 144.82 65.0944 144.762 65.2218C144.699 65.3545 144.625 65.4447 144.541 65.4924L143.033 66.3733C142.949 66.4211 142.875 66.4158 142.812 66.3574C142.749 66.299 142.723 66.2035 142.723 66.0708V63.7254C142.723 63.5927 142.754 63.4653 142.812 63.3327C142.875 63.2 142.943 63.1098 143.033 63.062L144.541 62.1812C144.625 62.1334 144.699 62.1387 144.762 62.1971C144.825 62.2555 144.851 62.351 144.851 62.4836V64.8291ZM144.851 71.0961C144.851 71.2288 144.82 71.3561 144.762 71.4888C144.699 71.6214 144.625 71.7116 144.541 71.7594L143.033 72.6403C142.949 72.688 142.875 72.6827 142.812 72.6244C142.749 72.566 142.723 72.4705 142.723 72.3378V69.9923C142.723 69.8597 142.754 69.727 142.812 69.5997C142.875 69.467 142.943 69.3768 143.033 69.329L144.541 68.4481C144.625 68.4004 144.699 68.4057 144.762 68.4641C144.825 68.5224 144.851 68.618 144.851 68.7506V71.0961Z" fill="#455A64"/>
<path d="M149.644 55.2458C149.681 55.0919 149.739 54.938 149.818 54.7788C149.897 54.6196 150.007 54.4976 150.154 54.4127L151.584 53.5796C151.652 53.5371 151.71 53.5424 151.762 53.5902C151.81 53.6379 151.836 53.7175 151.836 53.8237C151.836 53.8714 151.831 53.9298 151.815 53.9988L147.931 70.7514C147.899 70.8894 147.847 71.038 147.768 71.2025C147.689 71.367 147.574 71.4943 147.421 71.5845L146.018 72.4017C145.95 72.4442 145.887 72.4389 145.839 72.3911C145.787 72.3434 145.766 72.2638 145.766 72.1576C145.766 72.1099 145.771 72.0515 145.787 71.9825L149.644 55.2405V55.2458Z" fill="#455A64"/>
<path d="M153.597 52.9372C153.634 52.7833 153.691 52.6294 153.77 52.4702C153.849 52.311 153.959 52.189 154.107 52.1041L155.536 51.271C155.604 51.2285 155.662 51.2338 155.715 51.2816C155.762 51.3293 155.788 51.4089 155.788 51.5151C155.788 51.5628 155.783 51.6212 155.767 51.6902L151.883 68.4428C151.852 68.5808 151.799 68.7294 151.721 68.8939C151.642 69.0584 151.526 69.1857 151.374 69.2759L149.965 70.0931C149.897 70.1356 149.839 70.1303 149.786 70.0825C149.734 70.0348 149.713 69.9552 149.713 69.849C149.713 69.8013 149.718 69.7429 149.734 69.6739L153.592 52.9319L153.597 52.9372Z" fill="#455A64"/>
<path d="M161.212 52.725C161.328 52.656 161.417 52.656 161.475 52.7144C161.538 52.7728 161.58 52.8471 161.601 52.9267L162.452 56.4979L163.304 51.9344C163.325 51.8229 163.367 51.7062 163.43 51.5735C163.493 51.4408 163.577 51.34 163.693 51.2763L165.122 50.4432C165.201 50.4008 165.264 50.4008 165.317 50.4538C165.369 50.5069 165.395 50.5918 165.395 50.7139C165.395 50.7616 165.395 50.8094 165.385 50.8624L163.551 60.2231C163.53 60.3452 163.488 60.4672 163.43 60.5999C163.372 60.7272 163.288 60.8281 163.172 60.897L161.858 61.6612C161.743 61.7302 161.659 61.7302 161.606 61.6612C161.554 61.5975 161.512 61.5179 161.48 61.433L160.66 58.1483L159.84 62.3882C159.809 62.5155 159.767 62.6376 159.714 62.7649C159.662 62.8923 159.577 62.9878 159.462 63.0568L158.148 63.8209C158.032 63.8899 157.948 63.8899 157.89 63.8262C157.833 63.7625 157.791 63.6883 157.77 63.5927L155.935 56.3653C155.93 56.3228 155.925 56.2751 155.925 56.2273C155.925 56.1106 155.951 55.9885 156.004 55.8771C156.056 55.7603 156.125 55.6807 156.198 55.6383L157.628 54.8052C157.743 54.7362 157.833 54.7362 157.89 54.7946C157.953 54.8529 157.996 54.9272 158.017 55.0068L158.868 58.5781L159.719 54.0145C159.74 53.9084 159.782 53.7863 159.846 53.6537C159.909 53.521 159.998 53.4202 160.108 53.3565L161.191 52.725H161.212Z" fill="#455A64"/>
<path d="M171.192 46.909C171.308 46.8401 171.397 46.8401 171.455 46.8984C171.513 46.9568 171.56 47.0311 171.581 47.1107L172.433 50.6767L173.284 46.1131C173.305 46.0069 173.347 45.8849 173.41 45.7522C173.473 45.6196 173.563 45.5187 173.673 45.4551L175.103 44.6219C175.181 44.5795 175.245 44.5795 175.297 44.6325C175.35 44.6856 175.376 44.7705 175.376 44.8926C175.376 44.9403 175.376 44.9881 175.365 45.0411L173.531 54.4018C173.51 54.5239 173.468 54.6459 173.41 54.7786C173.353 54.9059 173.268 55.0068 173.153 55.0757L171.839 55.8399C171.723 55.9089 171.639 55.9089 171.587 55.8399C171.534 55.7762 171.492 55.6966 171.46 55.6117L170.641 52.327L169.821 56.5669C169.789 56.6942 169.747 56.8163 169.695 56.9436C169.642 57.071 169.558 57.1665 169.442 57.2355L168.128 57.9996C168.013 58.0686 167.929 58.0686 167.871 58.0049C167.813 57.9413 167.771 57.867 167.75 57.7715L165.916 50.544C165.911 50.5015 165.905 50.4538 165.905 50.406C165.905 50.2893 165.932 50.1672 165.984 50.0558C166.037 49.9391 166.105 49.8595 166.179 49.817L167.608 48.9839C167.724 48.9149 167.813 48.9149 167.871 48.9733C167.929 49.0316 167.976 49.1059 167.997 49.1855L168.848 52.7515L169.7 48.1879C169.721 48.0765 169.763 47.9597 169.826 47.8271C169.889 47.6944 169.973 47.5936 170.089 47.5299L171.171 46.8984L171.192 46.909Z" fill="#455A64"/>
<path d="M181.168 41.0933C181.284 41.0244 181.373 41.0244 181.431 41.0827C181.494 41.1411 181.536 41.2154 181.557 41.295L182.408 44.8663L183.26 40.3027C183.281 40.1965 183.323 40.0745 183.386 39.9418C183.449 39.8092 183.533 39.7137 183.649 39.6447L185.078 38.8115C185.157 38.7638 185.22 38.7691 185.273 38.8222C185.325 38.8752 185.352 38.9601 185.352 39.0822C185.352 39.1299 185.352 39.1777 185.341 39.2308L183.507 48.5914C183.486 48.7135 183.444 48.8355 183.386 48.9682C183.328 49.0956 183.244 49.1964 183.128 49.2601L181.814 50.0242C181.699 50.0932 181.615 50.0932 181.562 50.0242C181.51 49.9605 181.468 49.8809 181.436 49.796L180.616 46.5113L179.796 50.7512C179.765 50.8785 179.723 51.0006 179.67 51.1279C179.618 51.2553 179.534 51.3508 179.418 51.4198L178.104 52.1839C177.988 52.2529 177.904 52.2529 177.846 52.1892C177.789 52.1256 177.747 52.0513 177.726 51.9558L175.891 44.7283C175.886 44.6858 175.881 44.6381 175.881 44.5903C175.881 44.4736 175.907 44.3515 175.96 44.2401C176.012 44.1234 176.081 44.0438 176.154 44.0013L177.584 43.1682C177.699 43.0992 177.789 43.0992 177.846 43.1576C177.91 43.2159 177.952 43.2902 177.973 43.3698L178.824 46.9411L179.675 42.3775C179.696 42.2661 179.738 42.1493 179.802 42.0167C179.865 41.884 179.954 41.7885 180.064 41.7195L181.147 41.088L181.168 41.0933Z" fill="#455A64"/>
<path d="M187.91 45.9966C187.91 46.1293 187.879 46.2619 187.816 46.3893C187.752 46.5219 187.679 46.6121 187.595 46.6599L186.086 47.5408C186.002 47.5885 185.929 47.5832 185.866 47.5249C185.803 47.4665 185.776 47.371 185.776 47.2383V44.8928C185.776 44.7602 185.808 44.6275 185.866 44.5002C185.929 44.3675 186.002 44.2773 186.086 44.2295L187.595 43.3486C187.679 43.3009 187.752 43.3062 187.816 43.3646C187.879 43.4229 187.91 43.5185 187.91 43.6511V45.9966Z" fill="#455A64"/>
<path d="M103.132 64.6542L103.09 64.6277L92.5733 58.3236C92.5733 58.3236 92.5681 58.3236 92.5628 58.3182L92.505 58.2811C87.8748 55.4633 81.6942 55.9091 75.0458 60.2923C61.6912 69.0958 51.5163 90.4438 52.3204 107.982C52.7199 116.722 55.7734 122.861 60.3826 125.737L60.4246 125.764L70.9412 132.068L70.9884 132.1C75.6187 134.923 81.8045 134.483 88.4582 130.099C101.813 121.296 111.988 99.9478 111.184 82.4098C110.784 73.67 107.731 67.5303 103.121 64.6595L103.132 64.6542Z" fill="#37474F"/>
<path d="M70.6152 131.845L60.4403 125.759H60.435L60.393 125.727C55.7838 122.845 52.7303 116.706 52.3308 107.982C51.9734 100.16 53.8024 91.5899 57.1135 83.7098L57.1818 83.5347L67.6352 90.0086C64.3189 97.8834 62.4952 106.459 62.8526 114.281C63.2415 122.835 66.1742 128.895 70.6257 131.845H70.6152Z" fill="#263238"/>
<path d="M88.5343 130.192C101.889 121.389 112.059 100.041 111.26 82.5027C110.461 64.97 98.9825 57.8911 85.6332 66.6946C72.2786 75.4981 62.1037 96.8461 62.9078 114.384C63.712 131.917 75.185 138.996 88.5343 130.192Z" fill="#455A64"/>
<path d="M80.9372 125.461C79.1503 125.461 77.4685 125.026 75.9601 124.145C71.7556 121.704 69.3433 116.101 69.3433 108.778C69.3433 95.3044 77.4527 79.5813 87.4226 73.7282C91.9583 71.0643 96.3835 70.7247 99.8943 72.7624C104.099 75.2034 106.511 80.8071 106.511 88.13C106.511 101.603 98.4017 117.326 88.4317 123.179C85.8512 124.697 83.3022 125.461 80.9372 125.461ZM94.9119 73.4841C92.899 73.4841 90.6916 74.1527 88.4317 75.4846C79.0136 81.014 71.3509 95.9518 71.3509 108.783C71.3509 115.358 73.3954 120.319 76.9587 122.389C79.8177 124.05 83.5335 123.71 87.4174 121.428C96.8355 115.894 104.498 100.961 104.498 88.13C104.498 81.5553 102.454 76.5937 98.8904 74.5242C97.6974 73.829 96.352 73.4841 94.9119 73.4841Z" fill="#06B6D4"/>
<path d="M80.9375 91.7756C78.7249 91.7756 76.6909 91.0804 74.9355 89.6901L75.8658 88.4908C78.9351 90.9212 83.087 90.8151 87.5543 88.1937C92.1793 85.4768 96.5257 80.4409 99.7947 74.02L101.135 74.7152C97.7397 81.3908 93.1831 86.6442 88.3111 89.5097C85.7411 91.0167 83.2447 91.7756 80.9375 91.7756Z" fill="#06B6D4"/>
<path d="M76.0653 122.888L74.7251 122.193C78.1202 115.517 82.6769 110.264 87.5488 107.403C92.5837 104.448 97.3348 104.384 100.924 107.223L99.9942 108.422C96.9196 105.992 92.7729 106.098 88.3057 108.719C83.6807 111.436 79.3343 116.467 76.0653 122.888Z" fill="#06B6D4"/>
<path d="M85.9824 123.647C85.2834 123.647 84.6002 123.456 83.9485 123.079C80.4062 121.02 78.2041 113.607 78.2041 103.726C78.2041 90.1095 82.3087 77.029 87.5539 73.9512C89.036 73.081 90.5443 73.0385 91.916 73.8345C95.4583 75.8934 97.6604 83.3066 97.6604 93.1873C97.6604 106.804 93.5558 119.884 88.3107 122.962C87.5328 123.418 86.7498 123.647 85.9824 123.647ZM89.8716 74.7897C89.3723 74.7897 88.852 74.9489 88.3107 75.2673C83.6489 78.0054 79.7125 91.0382 79.7125 103.726C79.7125 114.18 82.2194 120.314 84.7001 121.758C85.5988 122.283 86.5343 122.246 87.5539 121.646C92.2156 118.908 96.1521 105.875 96.1521 93.1873C96.1521 82.7335 93.6451 76.5992 91.1645 75.1558C90.744 74.9117 90.3183 74.7897 89.8769 74.7897H89.8716Z" fill="#06B6D4"/>
<path d="M88.6841 74.6089H87.1758V122.304H88.6841V74.6089Z" fill="#06B6D4"/>
<path d="M105.129 87.4599L69.9717 108.12L70.7304 109.436L105.888 88.7762L105.129 87.4599Z" fill="#06B6D4"/>
<path d="M210.951 64.8296C210.778 64.4634 210.557 64.23 210.326 64.092L208.76 63.1793C208.077 62.7866 207.246 63.1793 206.805 63.4499L205.827 62.8821C204.639 62.1604 202.989 63.6728 202.621 64.0336L202.201 63.7895C201.644 63.4499 200.882 63.6675 200.209 64.0071V58.2548C200.209 57.6234 199.993 57.1776 199.647 56.96L199.631 56.9494C199.62 56.9494 199.615 56.9388 199.605 56.9335L198.065 56.0367H198.054V56.0314C197.691 55.8298 197.192 55.8616 196.646 56.18C195.537 56.8274 194.633 58.4034 194.633 59.6982V77.3105C194.554 77.2733 194.475 77.2362 194.391 77.199C193.019 76.2227 191.574 75.6389 190.302 75.8671C189.088 76.0847 188 77.1301 187.685 77.6926C187.017 78.8759 188.116 79.6188 189.529 81.2532C190.933 82.8717 192.168 84.8192 193.44 86.0185C194.717 87.2177 195.642 87.5308 195.642 87.5308V89.8338L197.192 90.7412L209.007 83.8534V81.5504C209.007 81.5504 210.473 75.6496 210.941 73.182C211.409 70.7145 211.84 66.724 210.941 64.8296H210.951Z" fill="#06B6D4"/>
<path opacity="0.8" d="M210.951 64.8296C210.778 64.4634 210.557 64.23 210.326 64.092L208.76 63.1793C208.077 62.7866 207.246 63.1793 206.805 63.4499L205.827 62.8821C204.639 62.1604 202.989 63.6728 202.621 64.0336L202.201 63.7895C201.644 63.4499 200.882 63.6675 200.209 64.0071V58.2548C200.209 57.6234 199.993 57.1776 199.647 56.96L199.631 56.9494C199.62 56.9494 199.615 56.9388 199.605 56.9335L198.065 56.0367H198.054V56.0314C197.691 55.8298 197.192 55.8616 196.646 56.18C195.537 56.8274 194.633 58.4034 194.633 59.6982V77.3105C194.554 77.2733 194.475 77.2362 194.391 77.199C193.019 76.2227 191.574 75.6389 190.302 75.8671C189.088 76.0847 188 77.1301 187.685 77.6926C187.017 78.8759 188.116 79.6188 189.529 81.2532C190.933 82.8717 192.168 84.8192 193.44 86.0185C194.717 87.2177 195.642 87.5308 195.642 87.5308V89.8338L197.192 90.7412L209.007 83.8534V81.5504C209.007 81.5504 210.473 75.6496 210.941 73.182C211.409 70.7145 211.84 66.724 210.941 64.8296H210.951Z" fill="white"/>
<path opacity="0.2" d="M200.214 64.0228V65.9756C200.277 65.9173 200.945 65.3336 201.733 64.925L200.214 64.0282V64.0228ZM207.351 63.1738C207.141 63.2587 206.957 63.3542 206.81 63.4444L207.309 63.7416C207.588 63.8849 207.84 64.1502 208.05 64.5641C208.05 64.5641 208.434 64.251 208.944 64.06L207.346 63.1738H207.351ZM203.672 63.1897C203.178 63.5028 202.784 63.869 202.621 64.0282L203.646 64.6278C203.646 64.6278 203.688 64.6437 203.704 64.6596C203.851 64.7339 203.983 64.8507 204.098 65.0099C204.145 64.9568 204.587 64.5004 205.186 64.1131L203.667 63.1897H203.672ZM194.638 59.6874V77.2997C195.158 77.5544 195.679 77.8834 196.194 78.2655V60.5895L194.638 59.6821V59.6874ZM195.006 86.9098C193.729 85.7105 192.494 83.763 191.096 82.1446C189.771 80.611 188.715 79.8628 189.151 78.7962L187.595 77.8887C187.165 78.9554 188.21 79.7036 189.54 81.2425C190.943 82.8556 192.173 84.8031 193.45 86.0077C194.727 87.207 195.652 87.52 195.652 87.52V89.8231L197.208 90.7305V88.4275C197.208 88.4275 196.283 88.1144 195.006 86.9098Z" fill="#06B6D4"/>
<path opacity="0.1" d="M200.214 64.0228V65.9756C200.277 65.9173 200.945 65.3336 201.733 64.925L200.214 64.0282V64.0228ZM207.351 63.1738C207.141 63.2587 206.957 63.3542 206.81 63.4444L207.309 63.7416C207.588 63.8849 207.84 64.1502 208.05 64.5641C208.05 64.5641 208.434 64.251 208.944 64.06L207.346 63.1738H207.351ZM203.672 63.1897C203.178 63.5028 202.784 63.869 202.621 64.0282L203.646 64.6278C203.646 64.6278 203.688 64.6437 203.704 64.6596C203.851 64.7339 203.983 64.8507 204.098 65.0099C204.145 64.9568 204.587 64.5004 205.186 64.1131L203.667 63.1897H203.672ZM194.638 59.6874V77.2997C195.158 77.5544 195.679 77.8834 196.194 78.2655V60.5895L194.638 59.6821V59.6874ZM195.006 86.9098C193.729 85.7105 192.494 83.763 191.096 82.1446C189.771 80.611 188.715 79.8628 189.151 78.7962L187.595 77.8887C187.165 78.9554 188.21 79.7036 189.54 81.2425C190.943 82.8556 192.173 84.8031 193.45 86.0077C194.727 87.207 195.652 87.52 195.652 87.52V89.8231L197.208 90.7305V88.4275C197.208 88.4275 196.283 88.1144 195.006 86.9098Z" fill="black"/>
<path d="M197.202 90.7411V88.4381C197.202 88.4381 196.277 88.125 195 86.9257C193.723 85.7264 192.488 83.7737 191.09 82.1605C189.676 80.5261 188.578 79.7832 189.245 78.5998C189.561 78.0373 190.649 76.9919 191.863 76.7744C193.213 76.5303 194.748 77.1989 196.193 78.2814V60.6055C196.193 59.3107 197.092 57.7346 198.206 57.0872C199.315 56.4399 200.219 56.9652 200.219 58.26V65.9809C200.219 65.9809 202.989 63.4975 204.108 65.0205C204.108 65.0205 206.831 62.139 208.06 64.5747C208.06 64.5747 210.058 62.9456 210.962 64.8347C211.86 66.7239 211.429 70.7197 210.962 73.1872C210.494 75.6547 209.027 81.5555 209.027 81.5555V83.8586L197.213 90.7464L197.202 90.7411Z" fill="#06B6D4"/>
<path opacity="0.65" d="M197.202 90.7411V88.4381C197.202 88.4381 196.277 88.125 195 86.9257C193.723 85.7264 192.488 83.7737 191.09 82.1605C189.676 80.5261 188.578 79.7832 189.245 78.5998C189.561 78.0373 190.649 76.9919 191.863 76.7744C193.213 76.5303 194.748 77.1989 196.193 78.2814V60.6055C196.193 59.3107 197.092 57.7346 198.206 57.0872C199.315 56.4399 200.219 56.9652 200.219 58.26V65.9809C200.219 65.9809 202.989 63.4975 204.108 65.0205C204.108 65.0205 206.831 62.139 208.06 64.5747C208.06 64.5747 210.058 62.9456 210.962 64.8347C211.86 66.7239 211.429 70.7197 210.962 73.1872C210.494 75.6547 209.027 81.5555 209.027 81.5555V83.8586L197.213 90.7464L197.202 90.7411Z" fill="white"/>
<g opacity="0.1">
<path d="M200.209 69.2868C200.209 69.2868 200.461 65.7632 201.744 64.9248C201.744 64.9248 201.723 64.9301 201.697 64.9407C200.882 65.3706 200.209 65.9702 200.209 65.9702V65.9012C200.193 65.9437 200.209 65.9702 200.209 65.9702V69.2868Z" fill="black"/>
<path d="M204.104 65.015V68.2361C204.104 68.2361 204.456 64.9248 205.191 64.1235C204.566 64.5268 204.104 65.0097 204.104 65.015Z" fill="black"/>
<path d="M208.051 64.5642V67.8011C208.051 67.8011 208.245 64.543 208.939 64.0601C208.434 64.2511 208.051 64.5642 208.051 64.5642Z" fill="black"/>
</g>
<path opacity="0.15" d="M170.977 157.115C161.9 161.684 157.78 166.481 162.478 169.84C167.177 173.204 179.964 177.752 179.964 177.752L181.64 183.441L200.219 172.61V166.168C200.219 166.168 188.756 158.187 184.284 156.653C179.806 155.114 176.301 154.43 170.982 157.11L170.977 157.115Z" fill="black"/>
<path d="M196.587 186.163C196.587 186.163 193.781 193.104 193.639 195.842C193.492 198.697 192.809 199.641 193.287 202.746C193.392 203.42 193.744 204.778 193.828 205.325C193.907 205.813 193.723 206.206 193.103 206.338C191.878 206.593 189.839 204.269 188.872 201.738C187.905 199.206 186.528 193.497 186.444 192.812C186.36 192.154 186.581 191.331 186.833 190.817C187.28 189.909 187.395 189.782 187.395 189.782C187.8 188.54 187.994 186.179 188.336 184.544L196.587 186.163Z" fill="#FFA8A7"/>
<path d="M184.047 195.412C184.047 195.412 183.737 195.98 183.721 196.346C183.69 196.914 184.967 198.792 185.466 199.472C185.965 200.156 186.454 201.01 186.386 202.714C186.312 204.534 187.111 206.29 188.273 207.792C189.439 209.294 191.463 210.939 194.438 211.868C197.417 212.791 198.463 211.284 198.463 211.284C198.463 211.284 199.388 209.835 198.831 209.241C198.274 208.646 184.047 195.407 184.047 195.407V195.412Z" fill="#263238"/>
<path d="M187.395 189.782C187.306 189.782 187.143 189.75 186.912 190.037C186.822 190.143 186.281 191.496 185.829 192.207C185.345 192.966 184.194 194.266 184.042 195.417C184.73 197.646 186.801 199.196 187.111 201.302C187.421 203.409 187.458 205.85 190.659 208.424C193.86 210.997 197.155 211.263 198.337 210.583C199.52 209.904 199.415 208.62 197.764 206.184C196.014 203.595 194.832 197.991 194.832 197.986C194.669 197.211 194.585 196.388 194.522 195.603C194.464 194.834 194.685 194.016 194.742 193.242C194.769 192.876 194.785 192.483 194.595 192.175C194.406 191.862 194.049 191.703 193.712 191.559C193.176 191.331 192.64 191.098 192.067 190.997C191.494 190.896 190.885 190.928 190.37 191.204C190.002 191.406 189.697 191.724 189.308 191.888C188.788 192.106 188.147 191.989 187.737 191.607C187.127 191.039 187.216 190.53 187.311 190.148C187.3 190.137 187.385 189.792 187.385 189.792L187.395 189.782Z" fill="#455A64"/>
<path d="M188.793 206.354C188.793 206.354 190.034 203.807 193.434 203.817C196.834 203.828 198.012 205.579 198.527 206.603C199.142 207.829 199.783 210.047 198.38 210.679C196.866 211.369 195.111 211.156 192.346 209.755C189.587 208.36 188.788 206.349 188.788 206.349L188.793 206.354Z" fill="#FAFAFA"/>
<path d="M189.413 196.012C189.508 196.06 189.623 196.06 189.723 196.012C190.249 195.741 193.029 195.152 194.648 196.67C194.858 196.5 194.816 196.187 194.548 195.752C192.656 194.537 190.023 195.078 189.387 195.407C189.219 195.492 189.161 195.699 189.255 195.863C189.292 195.932 189.35 195.98 189.413 196.012Z" fill="#FAFAFA"/>
<path d="M194.995 198.671C195.11 198.368 194.963 197.896 194.8 197.726C192.929 196.702 190.485 197.217 189.881 197.524C189.713 197.609 189.655 197.816 189.749 197.981C189.786 198.05 189.844 198.097 189.907 198.129C190.002 198.177 190.117 198.177 190.217 198.129C190.727 197.869 193.365 197.312 194.995 198.665V198.671Z" fill="#FAFAFA"/>
<path d="M196.382 203.308C196.397 202.889 196.245 202.47 195.946 202.066C194.059 200.92 191.489 201.451 190.863 201.769C190.695 201.854 190.637 202.061 190.732 202.226C190.769 202.295 190.827 202.342 190.89 202.374C190.984 202.422 191.1 202.422 191.2 202.374C191.757 202.088 194.821 201.451 196.382 203.308Z" fill="#FAFAFA"/>
<path d="M190.395 200.257C190.49 200.305 190.606 200.305 190.706 200.257C191.226 199.992 193.948 199.419 195.572 200.867C195.646 200.549 195.556 200.209 195.288 199.848C193.417 198.824 190.974 199.334 190.369 199.647C190.201 199.732 190.143 199.939 190.238 200.103C190.275 200.172 190.332 200.22 190.395 200.252V200.257Z" fill="#FAFAFA"/>
<path d="M199.609 194.685C199.609 194.685 201.002 203.154 202.547 206.439C204.092 209.724 204.885 211.31 207.019 213.799C207.482 214.34 208.538 215.349 208.916 215.784C209.253 216.171 209.311 216.622 208.827 217.089C207.881 218.002 203.866 218.219 201.611 216.516C199.362 214.813 197.312 211.183 195.967 209.814C195.462 209.299 194.989 208.774 194.537 208.211C194.101 207.67 194.222 207.161 194.185 206.556C194.164 206.264 194.206 205.468 194.206 205.468C193.896 204.04 193.065 201.806 192.624 200.416L199.609 194.685Z" fill="#FFA8A7"/>
<path d="M193.418 211.868C193.418 211.868 193.376 212.547 193.523 212.902C193.749 213.454 195.783 214.654 196.555 215.078C197.328 215.497 198.169 216.086 198.862 217.731C199.598 219.488 201.128 220.788 202.899 221.685C204.665 222.582 207.308 223.229 210.535 222.757C213.762 222.29 214.088 220.39 214.088 220.39C214.088 220.39 214.319 218.602 213.531 218.289C212.743 217.975 193.423 211.868 193.423 211.868H193.418Z" fill="#263238"/>
<path d="M194.095 205.028C194.006 205.065 193.843 205.112 193.749 205.489C193.712 205.633 193.796 207.156 193.686 208.031C193.565 208.965 193.05 210.716 193.417 211.873C195.057 213.672 197.701 214.203 198.925 216.055C200.15 217.906 201.264 220.199 205.432 221.191C209.6 222.184 212.837 220.952 213.652 219.769C214.472 218.591 213.799 217.429 211.16 215.863C208.359 214.203 204.759 209.432 204.759 209.427C204.26 208.769 203.818 208.031 203.414 207.309C203.02 206.609 202.862 205.733 202.578 204.975C202.441 204.614 202.284 204.237 201.963 204.03C201.643 203.823 201.238 203.828 200.859 203.844C200.255 203.871 199.64 203.892 199.052 204.051C198.463 204.21 197.901 204.518 197.538 205.012C197.275 205.367 197.133 205.808 196.839 206.137C196.445 206.577 195.788 206.758 195.225 206.577C194.4 206.312 194.258 205.792 194.18 205.388C194.164 205.383 194.095 205.022 194.095 205.022V205.028Z" fill="#455A64"/>
<path d="M202.752 220.082C202.752 220.082 202.799 217.111 206.021 215.593C209.243 214.07 211.129 215.195 212.075 215.933C213.2 216.813 214.787 218.623 213.741 219.859C212.612 221.191 210.856 221.786 207.624 221.706C204.392 221.626 202.752 220.087 202.752 220.087V220.082Z" fill="#FAFAFA"/>
<path d="M198.762 210.016C198.873 210.016 198.983 209.968 199.057 209.872C199.435 209.379 201.805 207.569 204.007 208.275C204.128 208.02 203.955 207.744 203.503 207.452C201.175 207.155 198.925 208.859 198.468 209.453C198.347 209.607 198.384 209.83 198.547 209.947C198.61 209.994 198.689 210.016 198.762 210.016Z" fill="#FAFAFA"/>
<path d="M205.221 210.01C205.195 209.671 204.854 209.294 204.617 209.204C202.394 209.076 200.307 210.663 199.871 211.236C199.75 211.39 199.787 211.613 199.95 211.729C200.013 211.777 200.092 211.798 200.166 211.798C200.276 211.798 200.386 211.751 200.46 211.655C200.828 211.178 203.077 209.464 205.221 210.01Z" fill="#FAFAFA"/>
<path d="M208.585 213.778C208.411 213.375 208.086 213.046 207.623 212.796C205.326 212.563 203.129 214.224 202.683 214.807C202.562 214.961 202.599 215.184 202.762 215.301C202.825 215.349 202.903 215.37 202.977 215.37C203.087 215.37 203.198 215.322 203.271 215.227C203.671 214.707 206.288 212.722 208.585 213.773V213.778Z" fill="#FAFAFA"/>
<path d="M201.574 213.587C201.684 213.587 201.794 213.539 201.868 213.444C202.241 212.956 204.564 211.188 206.745 211.825C206.677 211.491 206.44 211.21 206.025 210.992C203.802 210.865 201.716 212.451 201.279 213.025C201.159 213.178 201.195 213.401 201.358 213.518C201.421 213.566 201.5 213.587 201.574 213.587Z" fill="#FAFAFA"/>
<path d="M181.104 146.459C184.542 149.007 196.519 155.985 201.381 160.527C202.784 161.838 203.246 163.568 202.905 167.335C202.437 172.445 198.459 189.872 198.459 189.872C197.912 190.854 196.945 188.991 196.945 188.991L177.967 164.666L181.104 146.459Z" fill="#06B6D4"/>
<path opacity="0.3" d="M181.104 146.459C184.542 149.007 196.519 155.985 201.381 160.527C202.784 161.838 203.246 163.568 202.905 167.335C202.437 172.445 198.459 189.872 198.459 189.872C197.912 190.854 196.945 188.991 196.945 188.991L177.967 164.666L181.104 146.459Z" fill="black"/>
<path opacity="0.3" d="M197.633 184.449C193.245 180.745 179.06 158.15 179.06 158.15C179.06 158.15 179.06 158.15 179.065 158.144C180.999 156.494 181.992 150.784 181.992 150.784C182.76 152.986 181.95 156.314 181.356 157.529C182.476 158.505 188.782 163.743 193.166 167.25C194.264 168.131 195.389 169.214 195.767 171.214C196.671 176.006 197.738 183.488 197.633 184.454V184.449Z" fill="black"/>
<path d="M181.104 146.459L156.676 151.92C157.869 156.446 158.21 158.786 159.456 161.169C160.707 163.562 162.089 166.109 168.443 169.272C174.561 172.313 182.034 175.444 183.527 176.165C184.652 176.707 185.188 178.983 185.697 181.928C186.233 185.022 186.281 187.442 189.308 193.931C192.277 200.289 192.882 201.663 192.882 201.663C192.882 201.663 197.475 202.146 200.518 199.44C200.518 199.44 196.361 177.646 195.473 173.724C194.979 171.533 194.968 170.376 192.272 167.972C189.96 165.908 179.643 158.022 179.643 158.022C179.643 158.022 183.742 152.466 181.099 146.465L181.104 146.459Z" fill="#06B6D4"/>
<path opacity="0.3" d="M181.104 146.459L156.676 151.92C157.869 156.446 158.21 158.786 159.456 161.169C160.707 163.562 162.089 166.109 168.443 169.272C174.561 172.313 182.034 175.444 183.527 176.165C184.652 176.707 185.188 178.983 185.697 181.928C186.233 185.022 186.281 187.442 189.308 193.931C192.277 200.289 192.882 201.663 192.882 201.663C192.882 201.663 197.475 202.146 200.518 199.44C200.518 199.44 196.361 177.646 195.473 173.724C194.979 171.533 194.968 170.376 192.272 167.972C189.96 165.908 179.643 158.022 179.643 158.022C179.643 158.022 183.742 152.466 181.099 146.465L181.104 146.459Z" fill="black"/>
<path d="M209.186 105.488C208.776 105.446 208.35 105.557 207.977 105.732C207.53 105.944 207.136 106.252 206.736 106.549C206.127 107 205.507 107.43 204.865 107.839C204.298 108.2 203.699 108.603 203.026 108.72C202.8 108.757 202.316 108.767 202.563 108.417C202.884 107.966 203.247 107.536 203.488 107.032C203.73 106.533 203.835 105.934 203.625 105.419C203.562 105.265 203.462 105.111 203.31 105.042C203.094 104.941 202.989 105.058 202.863 105.201C202.732 105.35 202.579 105.477 202.432 105.61C202.127 105.881 201.822 106.157 201.523 106.433C199.767 108.046 197.628 109.441 196.877 111.771C196.766 112.111 196.272 113.644 196.257 116.202C196.241 118.76 196.088 127.659 196.088 127.659C196.088 127.659 189.088 121.715 186.05 119.152C184.584 117.916 182.539 116.419 180.285 116.202C178.687 116.048 177.757 116.059 177.757 116.059L182.529 127.743C182.529 127.743 191.558 134.525 195.884 136.86C199.788 138.967 201.691 137.449 202.164 136.345C202.947 134.515 203.751 133.655 202.648 123.424C202.569 122.633 202.469 120.367 202.385 119.577C202.269 117.926 202.458 116.25 203.089 115.889C204.256 115.231 205.396 114.509 206.4 113.623C207.062 113.039 207.661 112.376 208.15 111.638C208.355 111.33 208.713 110.874 208.749 110.497C208.786 110.11 208.623 109.707 208.739 109.325C208.818 109.065 208.991 108.852 209.054 108.576C209.186 108.014 209.138 107.367 209.496 106.878C209.69 106.608 210.016 106.369 209.974 106.04C209.937 105.775 209.669 105.61 209.412 105.546C209.338 105.53 209.259 105.515 209.186 105.509V105.488Z" fill="#FFA8A7"/>
<path d="M202.042 109.924C201.848 111.304 200.87 113.029 200.219 113.607C200.219 113.607 201.312 112.981 201.769 112.02C202.274 110.964 202.216 110.428 202.042 109.93V109.924Z" fill="#F28F8F"/>
<path d="M177.278 115.809C179.717 115.915 181.614 115.968 183.69 117.183C185.766 118.393 195.048 126.236 195.048 126.236C195.048 126.236 195.137 122.246 195.379 120.139C195.542 118.68 195.783 118.224 196.235 118.298C196.235 118.298 197.04 119.545 199.32 119.715C201.601 119.89 202.369 118.929 202.369 118.929C202.369 118.929 203.031 118.77 203.273 119.715C203.514 120.654 203.94 130.853 203.525 133.793C203.11 136.733 201.806 138.096 200.056 138.51C198.306 138.924 194.254 136.451 189.393 133.145C184.526 129.839 179.244 126.762 179.244 126.762L177.289 115.809H177.278Z" fill="#06B6D4"/>
<path opacity="0.7" d="M177.278 115.809C179.717 115.915 181.614 115.968 183.69 117.183C185.766 118.393 195.048 126.236 195.048 126.236C195.048 126.236 195.137 122.246 195.379 120.139C195.542 118.68 195.783 118.224 196.235 118.298C196.235 118.298 197.04 119.545 199.32 119.715C201.601 119.89 202.369 118.929 202.369 118.929C202.369 118.929 203.031 118.77 203.273 119.715C203.514 120.654 203.94 130.853 203.525 133.793C203.11 136.733 201.806 138.096 200.056 138.51C198.306 138.924 194.254 136.451 189.393 133.145C184.526 129.839 179.244 126.762 179.244 126.762L177.289 115.809H177.278Z" fill="white"/>
<path opacity="0.1" d="M195.047 126.236C194.653 128.974 195.247 131.962 195.247 131.962C195.247 131.962 193.465 128.492 194.017 125.313L195.047 126.236Z" fill="black"/>
<path d="M157.243 117.963C156.844 120.112 152.797 140.543 157.396 155.777C165.679 156.764 180.231 152.923 182.413 147.388C182.413 147.388 180.941 142.134 180.305 139.566C180.442 135.353 180.305 127.308 180.221 124.819C180.053 119.89 179.291 116.074 176.868 115.713C176.868 115.713 172.001 115.517 169.058 115.639C166.514 115.745 164.601 115.772 164.601 115.772L157.243 117.963Z" fill="#FAFAFA"/>
<path d="M169.41 150.439C168.874 149.24 159.041 143.111 159.041 143.111C159.041 143.111 159.188 140.272 159.777 135.045C160.365 129.818 160.534 123.556 158.668 120.41L156.786 120.484C155.725 126.82 153.559 143.095 157.391 155.783C161.805 156.308 168.007 155.464 173.163 153.719C172.212 153.077 169.836 151.394 169.41 150.439Z" fill="#F0F0F0"/>
<path d="M163.75 110.975C163.766 109.919 161.758 106.762 160.849 104.262C159.33 100.086 159.199 96.3343 162.946 94.7106C162.946 94.7106 165.29 90.6299 171.197 90.4282C177.104 90.2266 181.651 95.2624 179.685 101.996L163.745 110.98L163.75 110.975Z" fill="#455A64"/>
<path d="M165.211 104.527C164.439 104.527 164.16 103.408 163.629 102.808C163.098 102.209 161.275 101.535 160.097 103.249C159.004 104.846 160.066 107.144 161.259 108.035C162.762 109.155 163.792 108.072 163.792 108.072L163.656 116.504C163.656 116.504 163.924 118.372 167.334 119.46C171.276 120.712 174.482 118.622 172.133 115.995L172.222 113.771C173.342 114.026 174.871 114.164 176.033 113.984C177.346 113.782 178.398 112.784 179.076 110.736C180.395 106.74 180.027 101.418 178.666 96.5571C177.367 97.5972 171.35 99.5394 165.931 97.6131C166.12 100.972 165.963 104.522 165.211 104.522V104.527Z" fill="#FFA8A7"/>
<path d="M163.066 107.128C163.066 107.398 162.846 107.621 162.578 107.621C162.31 107.621 162.089 107.398 162.089 107.128C162.089 106.857 162.31 106.634 162.578 106.634C162.846 106.634 163.066 106.857 163.066 107.128Z" fill="#263238"/>
<path d="M172.222 113.771C172.222 113.771 168.932 112.8 167.639 111.882C166.683 111.203 165.831 110.126 165.621 109.558C165.621 109.558 166.115 111.336 167.009 112.365C168.58 114.164 172.18 114.997 172.18 114.997L172.222 113.766V113.771Z" fill="#F28F8F"/>
<path d="M171.959 104.48C171.97 104.952 171.607 105.344 171.155 105.35C170.703 105.355 170.33 104.978 170.32 104.506C170.309 104.034 170.672 103.641 171.124 103.636C171.576 103.63 171.949 104.007 171.959 104.48Z" fill="#263238"/>
<path d="M171.061 101.662L169.29 102.601C169.043 102.087 169.237 101.46 169.726 101.2C170.215 100.94 170.814 101.147 171.061 101.657V101.662Z" fill="#263238"/>
<path d="M171.702 108.82L174.514 109.728C174.235 110.524 173.384 110.964 172.606 110.715C171.828 110.465 171.424 109.616 171.702 108.82Z" fill="#F28F8F"/>
<path d="M178.64 101.625L176.695 101.089C176.821 100.537 177.363 100.208 177.899 100.356C178.435 100.505 178.766 101.073 178.64 101.625Z" fill="#263238"/>
<path d="M178.135 103.827C178.146 104.299 177.783 104.692 177.331 104.697C176.879 104.703 176.506 104.326 176.495 103.854C176.485 103.381 176.847 102.989 177.299 102.983C177.751 102.978 178.125 103.355 178.135 103.827Z" fill="#263238"/>
<path d="M179.038 96.5624C180.857 95.257 181.866 93.5059 181.382 91.102C180.673 91.8184 178.686 91.9511 176.947 91.1127C175.091 90.2212 172.154 89.006 168.033 89.8126C164.822 90.4387 162.94 92.9063 162.94 94.7158C163.566 96.0106 164.433 96.7057 165.926 97.6184C165.926 97.6184 169.005 100.16 173.672 99.8684C176.673 99.6827 178.234 98.2022 178.234 98.2022C178.234 98.2022 176.558 98.3507 175.769 97.8254C175.769 97.8254 177.677 97.5388 179.033 96.5624H179.038Z" fill="#37474F"/>
<path d="M174.614 107.77L177.121 106.613L173.92 102.155L174.614 107.77Z" fill="#F28F8F"/>
<path opacity="0.15" d="M202.142 161.434C201.927 161.105 201.674 160.808 201.38 160.532C198.458 157.805 192.971 154.196 188.309 151.198L167.098 163.562C166.966 163.637 166.966 163.828 167.098 163.902L182.502 172.881L202.137 161.434H202.142Z" fill="black"/>
<path d="M208.575 155.146V155.491C208.575 156 208.307 156.467 207.871 156.722L183.211 171.097C182.996 171.225 182.749 171.288 182.507 171.288C182.265 171.288 182.018 171.225 181.798 171.097L168.354 163.286C167.923 163.037 167.649 162.559 167.649 162.055V161.577C167.649 161.646 167.676 161.7 167.739 161.737L182.502 170.344L208.57 155.146H208.575Z" fill="#37474F"/>
<path d="M182.507 170.344V171.288C182.749 171.288 182.996 171.225 183.211 171.097L207.871 156.722C208.307 156.467 208.575 155.995 208.575 155.491V155.146L182.507 170.344Z" fill="#263238"/>
<path d="M208.575 155.146L193.954 146.624C193.696 146.47 193.376 146.47 193.113 146.624L167.744 161.413C167.618 161.487 167.618 161.668 167.744 161.742L182.502 170.349L208.57 155.151L208.575 155.146Z" fill="#455A64"/>
<path d="M182.371 169.091L174.487 164.496L197.549 151.055L205.475 155.624L182.371 169.091Z" fill="#37474F"/>
<path d="M205.475 155.624L205.175 155.799L197.544 151.405L174.787 164.671L174.487 164.496L197.544 151.055L205.475 155.624Z" fill="#263238"/>
<path d="M178.497 156.313L178.644 156.398L182.507 158.654L189.381 154.642L189.523 154.562L185.513 152.222L178.497 156.313Z" fill="#263238"/>
<path d="M178.645 156.399L182.507 158.654L189.382 154.642L185.514 152.392L178.645 156.399Z" fill="#37474F"/>
<path d="M185.977 159.105C184.873 157.996 183.265 156.462 181.919 156.011C181.746 155.953 181.483 155.831 180.973 155.714C181.436 155.624 181.903 155.586 182.361 155.433C182.813 155.279 183.238 155.029 183.533 154.647C183.648 154.493 183.732 154.249 183.585 154.127C183.533 154.085 183.464 154.058 183.391 154.058C182.382 154.026 181.583 153.867 180.668 153.803C180.269 153.777 179.817 153.719 179.433 153.825C179.055 153.925 178.682 154.037 178.314 154.17C176.637 154.753 175.113 155.284 172.738 154.721L168.47 152.424C168.47 152.424 167.561 152.196 166.215 154.493C164.87 156.791 165.658 158.054 165.658 158.054L170.451 159.725C170.451 159.725 170.499 159.741 170.52 159.752C171.045 159.954 171.524 160.368 172.785 160.76C174.277 161.222 176.191 160.675 177.489 160.606C178.787 160.537 180.989 161.142 182.192 161.636C183.396 162.129 184.841 160.256 185.446 160.484C186.05 160.707 187.096 160.219 185.987 159.11L185.977 159.105Z" fill="#FFA8A7"/>
<path d="M180.411 154.992C179.538 154.902 178.571 155.294 178.571 155.294C178.571 155.294 179.649 155.316 180.968 155.714C181.43 155.623 181.898 155.586 182.355 155.432C182.755 155.3 183.133 155.087 183.417 154.774C182.692 155.273 181.283 155.077 180.411 154.987V154.992Z" fill="#F28F8F"/>
<path d="M157.244 117.963C158.458 118.446 160.04 123.562 159.067 128.481L156.807 143.864C156.807 143.864 159.577 145.52 163.461 147.95C166.152 149.633 168.464 151.177 168.464 152.424C166.698 153.066 165.117 156.345 165.647 158.054C164.444 159.497 153.323 153.273 149.434 150.588C147.631 149.341 146.722 148.853 147.416 143.233C148.183 137.014 148.708 130.105 149.907 125.493C151.158 120.68 152.556 118.812 157.238 117.969L157.244 117.963Z" fill="#06B6D4"/>
<path opacity="0.7" d="M157.244 117.963C158.458 118.446 160.04 123.562 159.067 128.481L156.807 143.864C156.807 143.864 159.577 145.52 163.461 147.95C166.152 149.633 168.464 151.177 168.464 152.424C166.698 153.066 165.117 156.345 165.647 158.054C164.444 159.497 153.323 153.273 149.434 150.588C147.631 149.341 146.722 148.853 147.416 143.233C148.183 137.014 148.708 130.105 149.907 125.493C151.158 120.68 152.556 118.812 157.238 117.969L157.244 117.963Z" fill="white"/>
<path d="M182.907 170.551C183.375 170.732 183.906 170.7 184.347 170.44L208.902 156.128C209.333 155.879 209.632 155.444 209.716 154.95L212.402 138.765C212.418 138.675 212.423 138.58 212.423 138.489C212.423 138.038 212.244 137.608 211.929 137.29L186.413 152.164C186.092 152.35 185.877 152.668 185.814 153.034L182.907 170.551Z" fill="#37474F"/>
<path d="M182.508 170.344L182.676 170.44C182.75 170.482 182.828 170.519 182.907 170.551L185.814 153.034C185.877 152.668 186.097 152.35 186.413 152.164L211.929 137.29C211.829 137.189 211.713 137.104 211.587 137.03L186.019 151.93C185.698 152.116 185.483 152.435 185.419 152.801L182.508 170.339V170.344Z" fill="#455A64"/>
<path d="M186.05 152.498L185.656 152.27C185.54 152.429 185.456 152.61 185.419 152.806L182.508 170.344L182.676 170.439C182.75 170.482 182.828 170.519 182.907 170.551L185.814 153.034C185.845 152.833 185.934 152.652 186.05 152.493V152.498Z" fill="#263238"/>
<path d="M196.735 155.613C196.913 154.531 198.022 153.093 199.21 152.398C200.398 151.708 201.212 152.026 201.034 153.109C200.855 154.191 199.746 155.629 198.558 156.324C197.37 157.014 196.556 156.701 196.735 155.613Z" fill="#06B6D4"/>
</g>
<defs>
<clipPath id="clip0_499_1357">
<rect width="250" height="250" fill="white" transform="translate(0.5)"/>
</clipPath>
</defs>
</svg>
